/* XPM */
static char *XPM_icon[] = {
"24 16 4 1 12 8",
"  c None",
"Y c #f0c674",
"b c #5f819d",
"w c #707880",
"                        ",
" wwwwwwwwwwwwwwwwwwww   ",
" w                  w   ",
" w bbbbbbbbbb       w   ",
" w bbbbbbbbbb       www ",
" w bbbYYYYYYYYY       w ",
" w bbYYYYYYYYY        w ",
" w bbbbbbbYYY         w ",
" w bbbbbbYYYb         w ",
" w bbbbbYYYYYYYYY     w ",
" w bbbbYYYYYYYYY      w ",
" w bbbbbbbbbb       www ",
" w bbbbbbbbbb       w   ",
" w                  w   ",
" wwwwwwwwwwwwwwwwwwww   ",
"                        ",
};
