/* XPM */
static char *XPM_icon[] = {
"24 16 4 1 12 8",
"  c None",
"Y c #f0c674",
"b c #5f819d",
"w c #707880",
"                        ",
" wwwwwwwwwwwwwwwwwwww   ",
" w                  w   ",
" w bbbbbb           w   ",
" w bbbbbb           www ",
" w bbbYYYYYYYYY       w ",
" w bbYYYYYYYYY        w ",
" w bbbbbb YYY         w ",
" w bbbbbbYYY          w ",
" w bbbbbYYYYYYYYY     w ",
" w bbbbYYYYYYYYY      w ",
" w bbbbbb           www ",
" w bbbbbb           w   ",
" w                  w   ",
" wwwwwwwwwwwwwwwwwwww   ",
"                        ",
};
