/* XPM */
static char *XPM_icon[] = {
"24 16 4 1 12 8",
"  c None",
"Y c #f0c674",
"b c #5f819d",
"w c #707880",
"                        ",
" wwwwwwwwwwwwwwwwwwww   ",
" w                  w   ",
" w bbbb             w   ",
" w bbbb             www ",
" w bbbYYYYYYYYY       w ",
" w bbYYYYYYYYY        w ",
" w bbbb   YYY         w ",
" w bbbb  YYY          w ",
" w bbbb YYYYYYYYY     w ",
" w bbbbYYYYYYYYY      w ",
" w bbbb             www ",
" w bbbb             w   ",
" w                  w   ",
" wwwwwwwwwwwwwwwwwwww   ",
"                        ",
};
