/* XPM */
static char *XPM_icon[] = {
"24 16 4 1 12 8",
"  c None",
"Y c #f0c674",
"b c #5f819d",
"w c #707880",
"                        ",
" wwwwwwwwwwwwwwwwwwww   ",
" w                  w   ",
" w b                w   ",
" w b                www ",
" w b  YYYYYYYYY       w ",
" w b YYYYYYYYY        w ",
" w b      YYY         w ",
" w b     YYY          w ",
" w b    YYYYYYYYY     w ",
" w b   YYYYYYYYY      w ",
" w b                www ",
" w b                w   ",
" w                  w   ",
" wwwwwwwwwwwwwwwwwwww   ",
"                        ",
};
