/* XPM */
static char *XPM_icon[] = {
"12 16 5 1 6 8",
"  c None",
"w c #707880",
"y c #da8548",
"r c #ff6c6b",
"g c #98be65",
"            ",
"    wwwww   ",
" wwww   w   ",
"    w   w   ",
" wwww   w   ",
"    w   w   ",
" wwww   w   ",
"    w   w   ",
"    w   w   ",
"   ww g ww  ",
"  ww ggg ww ",
"  w ggggg w ",
"  w ggggg w ",
"  ww     ww ",
"   wwwwwww  ",
"            ",
};
