/* XPM */
static char *XPM_icon[] = {
"24 16 5 1 12 8",
"  c None",
"w c #707880",
"y c #da8548",
"r c #ff6c6b",
"g c #98be65",
"                        ",
" wwwwwwwwwwwwwwwwwwww   ",
" w                  w   ",
" w rr               w   ",
" w rr               www ",
" w rr                 w ",
" w rr                 w ",
" w rr                 w ",
" w rr                 w ",
" w rr                 w ",
" w rr                 w ",
" w rr               www ",
" w rr               w   ",
" w                  w   ",
" wwwwwwwwwwwwwwwwwwww   ",
"                        ",
};
