/* XPM */
static char *XPM_icon[] = {
"16 16 5 1 8 8",
"  c None",
"w c #707880",
"y c #da8548",
"r c #ff6c6b",
"g c #98be65",
"                ",
"    w w  w w    ",
"    w w  w w    ",
"   wwwwwwwwww   ",
" www        www ",
"   w        w   ",
" www  g  g  www ",
"   w        w   ",
"   g        w   ",
" ggg  g  g  www ",
"   g        w   ",
" ggg        www ",
"   gwwwwwwwww   ",
"    w w  w w    ",
"    w w  w w    ",
"                ",
};
