<?xml version="1.0" encoding="UTF-8" standalone="no"?>
<svg
   xmlns:dc="http://purl.org/dc/elements/1.1/"
   xmlns:cc="http://creativecommons.org/ns#"
   xmlns:rdf="http://www.w3.org/1999/02/22-rdf-syntax-ns#"
   xmlns:svg="http://www.w3.org/2000/svg"
   xmlns="http://www.w3.org/2000/svg"
   xmlns:sodipodi="http://sodipodi.sourceforge.net/DTD/sodipodi-0.dtd"
   xmlns:inkscape="http://www.inkscape.org/namespaces/inkscape"
   version="1.1"
   viewBox="-10 0 1034 1024"
   id="svg6"
   sodipodi:docname="audio.svg"
   inkscape:version="1.0.2 (e86c870879, 2021-01-15, custom)">
  <metadata
     id="metadata12">
    <rdf:RDF>
      <cc:Work
         rdf:about="">
        <dc:format>image/svg+xml</dc:format>
        <dc:type
           rdf:resource="http://purl.org/dc/dcmitype/StillImage" />
      </cc:Work>
    </rdf:RDF>
  </metadata>
  <defs
     id="defs10" />
  <sodipodi:namedview
     pagecolor="#ffffff"
     bordercolor="#666666"
     borderopacity="1"
     objecttolerance="10"
     gridtolerance="10"
     guidetolerance="10"
     inkscape:pageopacity="0"
     inkscape:pageshadow="2"
     inkscape:window-width="1920"
     inkscape:window-height="1080"
     id="namedview8"
     showgrid="false"
     inkscape:zoom="0.69824219"
     inkscape:cx="517"
     inkscape:cy="512"
     inkscape:window-x="1920"
     inkscape:window-y="0"
     inkscape:window-maximized="1"
     inkscape:current-layer="svg6" />
  <g
     transform="matrix(1 0 0 -1 0 819)"
     id="g4"
     style="fill:#ff6c6b;fill-opacity:1">
    <path
       fill="currentColor"
       d="M662.714 757l225 -225v-610.714q0 -64.2861 -64.2852 -64.2861h-642.857q-64.2852 0 -64.2852 64.2861v771.428q0 64.2852 64.2852 64.2852h482.144zM823.429 -78.7139v578.571l-192.856 192.856h-450v-771.428h642.856zM431.9 395.61q10.8896 -4.52314 10.8896 -16.8311 v-300.959q0.240522 -10.1041 -10.8896 -15.8408q-1.90039 -0.979492 -6.92969 -0.989258q-7.98387 0.00978175 -12.8711 4.9502l-91.0791 92.0703h-72.2705q-7.75 -0.0107422 -12.375 5.44336q-5.44531 5.61845 -5.44531 12.375v105.932q0.0703125 8.23926 5.44531 12.8691 q5.18412 4.94922 12.375 4.94922h72.2705l91.0791 92.0703q8.90039 8.35059 19.8008 3.96094zM662.57 14.46q-12.5703 0.540039 -22.7705 8.91016q-11.7998 8.62988 -13.3652 23.2656q-1.43457 14.3643 8.41504 26.2344q55.1504 68.1299 55.4404 155.43 q0.709961 85.7002 -55.4404 156.42q-20.8425 26.9768 4.9502 49.5q10.2002 8.78027 26.2344 7.9209q15.9658 -1.14062 24.2559 -12.8711q71.71 -89.2695 71.2803 -200.97q-0.570312 -108.3 -71.2803 -199.979q-11.29 -14.3203 -27.7197 -13.8604zM545.75 96.6299 q-14.75 0.370117 -24.75 8.91016q-11 10.46 -10.8906 24.75q-0.109375 14.71 9.90039 25.7393q28.9902 30.9707 28.7109 72.2705q0.279297 40.7002 -28.7109 72.2705q-10.0098 11.4297 -9.90039 25.7402q-0.109375 14.6895 10.8906 24.75q11 9.93945 25.7402 9.4043 q15.2598 -0.464844 24.75 -11.3857q48.5098 -52.0791 48.5098 -120.779q0 -72.2998 -48.5098 -120.78q-10.4902 -10.5195 -25.7402 -10.8896z"
       id="path2"
       style="fill:#ff6c6b;fill-opacity:1" />
  </g>
</svg>
