<?xml version="1.0" encoding="UTF-8" standalone="no"?>
<svg
   xmlns:dc="http://purl.org/dc/elements/1.1/"
   xmlns:cc="http://creativecommons.org/ns#"
   xmlns:rdf="http://www.w3.org/1999/02/22-rdf-syntax-ns#"
   xmlns:svg="http://www.w3.org/2000/svg"
   xmlns="http://www.w3.org/2000/svg"
   xmlns:sodipodi="http://sodipodi.sourceforge.net/DTD/sodipodi-0.dtd"
   xmlns:inkscape="http://www.inkscape.org/namespaces/inkscape"
   version="1.1"
   viewBox="-10 0 1024 1024"
   id="svg6"
   sodipodi:docname="bin_file.svg"
   width="1024"
   height="1024"
   inkscape:version="1.0.2 (e86c870879, 2021-01-15, custom)">
  <metadata
     id="metadata12">
    <rdf:RDF>
      <cc:Work
         rdf:about="">
        <dc:format>image/svg+xml</dc:format>
        <dc:type
           rdf:resource="http://purl.org/dc/dcmitype/StillImage" />
        <dc:title />
      </cc:Work>
    </rdf:RDF>
  </metadata>
  <defs
     id="defs10" />
  <sodipodi:namedview
     pagecolor="#ffffff"
     bordercolor="#666666"
     borderopacity="1"
     objecttolerance="10"
     gridtolerance="10"
     guidetolerance="10"
     inkscape:pageopacity="0"
     inkscape:pageshadow="2"
     inkscape:window-width="1920"
     inkscape:window-height="1080"
     id="namedview8"
     showgrid="false"
     inkscape:zoom="0.715"
     inkscape:cx="310"
     inkscape:cy="500"
     inkscape:window-x="1920"
     inkscape:window-y="0"
     inkscape:window-maximized="1"
     inkscape:current-layer="svg6"
     inkscape:document-rotation="0" />
  <g
     transform="matrix(1.2857143,0,0,-1.2857143,116.28571,969.71429)"
     id="g4"
     style="fill:#cc3e44;fill-opacity:1">
    <path
       fill="currentColor"
       d="m 200,156 h 50 V 106 H 100 v 50 h 50 v 100 h -50 v 50 H 200 Z M 600,531 V 56 Q 600,6 550,6 H 50 Q 0,6 0,56 v 600 q 0,50 50,50 H 425 Z M 550,506 400,656 H 50 V 56 H 550 Z M 400,556 V 406 h 50 V 356 H 300 v 50 h 50 v 100 h -50 v 50 z m -300,0 H 250 V 356 H 100 Z m 50,-150 h 50 V 506 H 150 Z M 300,306 H 450 V 106 H 300 Z m 50,-150 h 50 v 100 h -50 z"
       id="path2"
       style="fill:#cc3e44;fill-opacity:1" />
  </g>
</svg>
