<?xml version="1.0" encoding="UTF-8" standalone="no"?>
<svg
   xmlns:dc="http://purl.org/dc/elements/1.1/"
   xmlns:cc="http://creativecommons.org/ns#"
   xmlns:rdf="http://www.w3.org/1999/02/22-rdf-syntax-ns#"
   xmlns:svg="http://www.w3.org/2000/svg"
   xmlns="http://www.w3.org/2000/svg"
   xmlns:sodipodi="http://sodipodi.sourceforge.net/DTD/sodipodi-0.dtd"
   xmlns:inkscape="http://www.inkscape.org/namespaces/inkscape"
   version="1.1"
   viewBox="-10 0 1024 1024"
   id="svg4"
   sodipodi:docname="book.svg"
   width="1024"
   height="1024"
   inkscape:version="1.0.2 (e86c870879, 2021-01-15, custom)">
  <metadata
     id="metadata10">
    <rdf:RDF>
      <cc:Work
         rdf:about="">
        <dc:format>image/svg+xml</dc:format>
        <dc:type
           rdf:resource="http://purl.org/dc/dcmitype/StillImage" />
        <dc:title />
      </cc:Work>
    </rdf:RDF>
  </metadata>
  <defs
     id="defs8" />
  <sodipodi:namedview
     pagecolor="#ffffff"
     bordercolor="#666666"
     borderopacity="1"
     objecttolerance="10"
     gridtolerance="10"
     guidetolerance="10"
     inkscape:pageopacity="0"
     inkscape:pageshadow="2"
     inkscape:window-width="1920"
     inkscape:window-height="1080"
     id="namedview6"
     showgrid="false"
     inkscape:zoom="0.715"
     inkscape:cx="469"
     inkscape:cy="500"
     inkscape:window-x="1920"
     inkscape:window-y="0"
     inkscape:window-maximized="1"
     inkscape:current-layer="svg4"
     inkscape:document-rotation="0" />
  <path
     fill="currentColor"
     d="m 877.81699,179.27668 q -70.1525,-22.04793 -146.31808,-22.04793 -61.1329,0 -121.7647,15.03269 Q 549.1024,187.29411 502,219.36382 454.8976,187.29411 394.26579,172.26144 333.63399,157.22875 272,157.22875 q -61.63399,0 -122.26579,15.03269 Q 89.102396,187.29411 42,219.36382 v 613.33334 q 0,8.01743 7.01525,14.0305 6.013072,6.01309 14.030501,6.01309 l 10.021787,-2.00438 q 45.098032,-20.04356 99.215682,-33.07189 54.11765,-13.02832 100.21787,-13.02832 61.1329,-2.00436 121.7647,13.02832 60.63181,15.03268 107.73421,49.10677 45.09804,-26.05665 109.73856,-44.09587 64.64053,-18.03922 118.25709,-18.03922 53.61655,0 104.72767,10.02178 51.11111,10.02179 96.20914,34.07409 4.00871,2.00434 10.52288,2.00434 6.51416,0 12.52723,-6.01306 6.01308,-6.01308 8.01743,-16.03486 V 219.36382 q -37.08061,-26.05664 -84.18301,-40.08714 z m 0,563.22441 q -70.1525,-22.04793 -146.31808,-22.04793 -55.11982,0 -119.76035,18.03922 Q 547.09804,756.53158 502,784.59258 V 303.54683 q 45.09804,-26.05664 109.73856,-44.09586 64.64053,-18.03921 119.76035,-18.03921 76.16558,-2.00436 146.31808,20.04357 z"
     id="path2"
     style="stroke-width:1.00218;fill:#ffb70d;fill-opacity:1" />
</svg>
