<?xml version="1.0" encoding="UTF-8" standalone="no"?>
<svg
   xmlns:dc="http://purl.org/dc/elements/1.1/"
   xmlns:cc="http://creativecommons.org/ns#"
   xmlns:rdf="http://www.w3.org/1999/02/22-rdf-syntax-ns#"
   xmlns:svg="http://www.w3.org/2000/svg"
   xmlns="http://www.w3.org/2000/svg"
   xmlns:sodipodi="http://sodipodi.sourceforge.net/DTD/sodipodi-0.dtd"
   xmlns:inkscape="http://www.inkscape.org/namespaces/inkscape"
   version="1.1"
   viewBox="-10 0 1034 1024"
   id="svg4"
   sodipodi:docname="brainfuck.svg"
   inkscape:version="1.0.2 (e86c870879, 2021-01-15, custom)">
  <metadata
     id="metadata10">
    <rdf:RDF>
      <cc:Work
         rdf:about="">
        <dc:format>image/svg+xml</dc:format>
        <dc:type
           rdf:resource="http://purl.org/dc/dcmitype/StillImage" />
      </cc:Work>
    </rdf:RDF>
  </metadata>
  <defs
     id="defs8" />
  <sodipodi:namedview
     pagecolor="#ffffff"
     bordercolor="#666666"
     borderopacity="1"
     objecttolerance="10"
     gridtolerance="10"
     guidetolerance="10"
     inkscape:pageopacity="0"
     inkscape:pageshadow="2"
     inkscape:window-width="1920"
     inkscape:window-height="1080"
     id="namedview6"
     showgrid="false"
     inkscape:zoom="0.69824219"
     inkscape:cx="517"
     inkscape:cy="512"
     inkscape:window-x="0"
     inkscape:window-y="0"
     inkscape:window-maximized="1"
     inkscape:current-layer="svg4" />
  <path
     fill="currentColor"
     d="M900 569q2 48 -18.5 91t-59.5 71l32 61q15 29 2 59q-12 31 -43 41l-32 10q-11 4 -23 4q-32 0 -54 -26l-86 -102q-56 -10 -100 -45q-31 9 -61 9q-57 0 -103 -32q-32 9 -66 9q-48 0 -94 -19q-44 -19 -71 -59t-29 -88q-5 -46 15 -87q-19 -48 -3 -95q23 -59 79 -92 q18 -52 63.5 -83t100.5 -27q49 -46 116.5 -50.5t121.5 35.5q27 -7 54 -7q41 -1 79 16.5t64 50.5q62 16 103 67t43 116q3 69 -35 128q5 23 5 44v0zM695 512q18 2 30 14t12 29t-12 29t-29 12h-26q-20 56 -66 94q1 0 31 9q42 -1 74.5 -8.5t51.5 -17.5t32.5 -24.5t19 -26.5 t7.5 -26t1.5 -19.5t-0.5 -10.5q-2 -44 -34.5 -74t-75.5 -28q-17 0 -29 -12t-12 -29t12 -29t29 -12q78 2 136 53q3 -19 3 -36q-2 -44 -28 -71t-89 -33q-15 -34 -38.5 -51.5t-47.5 -17.5t-45.5 7.5t-35 20.5t-13.5 25q-1 6 3.5 17.5t6.5 12.5q17 0 29 12t12 29t-12 29t-29 12 q-33 -1 -59 -23q-29 20 -65 23q-18 2 -30.5 -9t-13.5 -27q-2 -18 8.5 -31t27.5 -15q39 -4 39 -31q0 -41 27 -73q-61 -17 -119 53q-58 -10 -85 5t-43 73q-33 16 -47.5 30.5t-20.5 42.5q67 -13 131 11q16 5 23 20.5t1 31.5q-5 16 -20.5 23t-31.5 1q-47 -20 -94 -2 q-14 11 -14 52q0 49 41 75q34 17 70 16q-9 -16 -16 -33q-5 -16 2.5 -32t24 -22t32.5 2t22 24q12 35 41 57.5t66 26.5q42 -2 77 -25.5t53 -61.5q4 -20 13 -33t25 -19t30.5 -7.5t36.5 -1.5v0zM777 817l-25 -53l-30 7l41 51l14 -5v0zM587 465q0 16 -12.5 27.5t-29.5 10.5 q-10 0 -18 6q-9 13 -9 31q0 17 -12 29t-29 12t-29 -12t-12 -29q-2 -53 34 -90q34 -30 79 -27q17 1 27.5 13.5t10.5 28.5z"
     id="path2"
     style="fill:#ff4081;fill-opacity:1" />
</svg>
