<?xml version="1.0" encoding="UTF-8" standalone="no"?>
<svg
   xmlns:dc="http://purl.org/dc/elements/1.1/"
   xmlns:cc="http://creativecommons.org/ns#"
   xmlns:rdf="http://www.w3.org/1999/02/22-rdf-syntax-ns#"
   xmlns:svg="http://www.w3.org/2000/svg"
   xmlns="http://www.w3.org/2000/svg"
   xmlns:sodipodi="http://sodipodi.sourceforge.net/DTD/sodipodi-0.dtd"
   xmlns:inkscape="http://www.inkscape.org/namespaces/inkscape"
   version="1.1"
   viewBox="-10 0 1024 1024"
   id="svg6"
   sodipodi:docname="coffee.svg"
   width="1024"
   height="1024"
   inkscape:version="1.0.2 (e86c870879, 2021-01-15, custom)">
  <metadata
     id="metadata12">
    <rdf:RDF>
      <cc:Work
         rdf:about="">
        <dc:format>image/svg+xml</dc:format>
        <dc:type
           rdf:resource="http://purl.org/dc/dcmitype/StillImage" />
        <dc:title />
      </cc:Work>
    </rdf:RDF>
  </metadata>
  <defs
     id="defs10" />
  <sodipodi:namedview
     pagecolor="#ffffff"
     bordercolor="#666666"
     borderopacity="1"
     objecttolerance="10"
     gridtolerance="10"
     guidetolerance="10"
     inkscape:pageopacity="0"
     inkscape:pageshadow="2"
     inkscape:window-width="1920"
     inkscape:window-height="1080"
     id="namedview8"
     showgrid="false"
     inkscape:zoom="0.715"
     inkscape:cx="310"
     inkscape:cy="500"
     inkscape:window-x="1920"
     inkscape:window-y="0"
     inkscape:window-maximized="1"
     inkscape:current-layer="svg6"
     inkscape:document-rotation="0" />
  <g
     transform="matrix(1.5,0,0,-1.5,52,1046)"
     id="g4"
     style="fill-opacity:1;fill:#6e4e37">
    <path
       fill="currentColor"
       d="M 538,459.5 Q 538,485 519.5,503 501,521 475,521 H 455 V 397 h 20 q 26,0 44.5,18.5 18.5,18.5 18.5,44 z M 0,211 h 579 q 0,-34 -24,-58 -24,-24 -59,-24 H 83 Q 49,129 24.5,153 0,177 0,211 Z M 600,459 Q 600,408 563.5,371.5 527,335 475,335 h -20 v -10 q 0,-30 -21,-51 -21,-21 -51,-21 H 155 q -30,0 -51,21 -21,21 -21,51 v 238 q 0,9 6,14.5 6,5.5 15,5.5 h 371 q 52,0 88.5,-36.5 Q 600,510 600,459 Z"
       id="path2"
       style="fill-opacity:1;fill:#6e4e37" />
  </g>
</svg>
