<?xml version="1.0" encoding="UTF-8" standalone="no"?>
<svg
   xmlns:dc="http://purl.org/dc/elements/1.1/"
   xmlns:cc="http://creativecommons.org/ns#"
   xmlns:rdf="http://www.w3.org/1999/02/22-rdf-syntax-ns#"
   xmlns:svg="http://www.w3.org/2000/svg"
   xmlns="http://www.w3.org/2000/svg"
   xmlns:sodipodi="http://sodipodi.sourceforge.net/DTD/sodipodi-0.dtd"
   xmlns:inkscape="http://www.inkscape.org/namespaces/inkscape"
   viewBox="0 0 1024 1024"
   version="1.1"
   id="svg8"
   sodipodi:docname="dart-plain.svg"
   width="1024"
   height="1024"
   inkscape:version="1.0.2 (e86c870879, 2021-01-15, custom)">
  <metadata
     id="metadata14">
    <rdf:RDF>
      <cc:Work
         rdf:about="">
        <dc:format>image/svg+xml</dc:format>
        <dc:type
           rdf:resource="http://purl.org/dc/dcmitype/StillImage" />
        <dc:title />
      </cc:Work>
    </rdf:RDF>
  </metadata>
  <defs
     id="defs12" />
  <sodipodi:namedview
     pagecolor="#ffffff"
     bordercolor="#666666"
     borderopacity="1"
     objecttolerance="10"
     gridtolerance="10"
     guidetolerance="10"
     inkscape:pageopacity="0"
     inkscape:pageshadow="2"
     inkscape:window-width="1920"
     inkscape:window-height="1080"
     id="namedview10"
     showgrid="false"
     inkscape:zoom="0.49373179"
     inkscape:cx="212.05447"
     inkscape:cy="472.81931"
     inkscape:window-x="1920"
     inkscape:window-y="0"
     inkscape:window-maximized="1"
     inkscape:current-layer="g6"
     inkscape:document-rotation="0" />
  <g
     fill="#00a8e1"
     id="g6"
     transform="matrix(7.0424834,0,0,7.0424834,61.534435,61.266371)">
    <path
       style="fill:#00c4b3;fill-opacity:1"
       d="M 28.9,92.2 93.2,114.9 107,108.8 28.4,30.2 v 56.1 l 0.1,2.7 c 0,0.9 0.1,2 0.4,3.2 z"
       id="path836" />
    <path
       style="fill:#0175ca;fill-opacity:1"
       d="m 92.7,28.6 c -1.2,-0.2 -2.3,-0.4 -3.3,-0.5 l -2.9,-0.1 -56,0.1 78.6,78.6 6.1,-13.8 z"
       id="path834" />
    <path
       style="fill:#00c4b3;fill-opacity:1"
       d="m 86.6,25 3,0.1 c 1.1,0.1 2.2,0.3 3.4,0.5 L 90.5,18.2 75.7,3.5 C 72.3,0.1 67.7,-0.9 65.3,1.2 L 29.2,25.1 Z"
       id="path2" />
    <path
       d="M 25.5,89.1 25.4,86.4 V 28.9 L 1.7,65.1 C -0.4,67.3 0.7,72 4,75.5 l 14.7,14.8 7.3,2.6 c -0.3,-1.3 -0.5,-2.5 -0.5,-3.8 z"
       id="path842"
       style="fill:#0175ca;fill-opacity:1" />
    <path
       d="m 93.4,118.1 -65,-22.9 c 1.4,4.3 3.8,8.7 6.5,11.4 l 21.3,21.2 47.6,0.1 5.3,-16.7 z"
       id="path840"
       style="fill:#22d2c5;fill-opacity:1" />
    <path
       d="m 106.9,34.3 c -2.6,-2.6 -7,-5.1 -11.3,-6.5 l 22.8,65.2 -6.9,15.7 15.8,-5.2 V 54.8 Z"
       id="path4"
       style="fill:#00a8e1;fill-opacity:1" />
  </g>
</svg>
