<?xml version="1.0" encoding="UTF-8" standalone="no"?>
<svg
   xmlns:dc="http://purl.org/dc/elements/1.1/"
   xmlns:cc="http://creativecommons.org/ns#"
   xmlns:rdf="http://www.w3.org/1999/02/22-rdf-syntax-ns#"
   xmlns:svg="http://www.w3.org/2000/svg"
   xmlns="http://www.w3.org/2000/svg"
   xmlns:sodipodi="http://sodipodi.sourceforge.net/DTD/sodipodi-0.dtd"
   xmlns:inkscape="http://www.inkscape.org/namespaces/inkscape"
   viewBox="0 0 1024 1024"
   version="1.1"
   id="svg6"
   sodipodi:docname="docker-plain.svg"
   width="1024"
   height="1024"
   inkscape:version="1.0.2 (e86c870879, 2021-01-15, custom)">
  <metadata
     id="metadata12">
    <rdf:RDF>
      <cc:Work
         rdf:about="">
        <dc:format>image/svg+xml</dc:format>
        <dc:type
           rdf:resource="http://purl.org/dc/dcmitype/StillImage" />
        <dc:title></dc:title>
      </cc:Work>
    </rdf:RDF>
  </metadata>
  <defs
     id="defs10" />
  <sodipodi:namedview
     pagecolor="#ffffff"
     bordercolor="#666666"
     borderopacity="1"
     objecttolerance="10"
     gridtolerance="10"
     guidetolerance="10"
     inkscape:pageopacity="0"
     inkscape:pageshadow="2"
     inkscape:window-width="1920"
     inkscape:window-height="1080"
     id="namedview8"
     showgrid="false"
     inkscape:zoom="0.49373179"
     inkscape:cx="-302.19903"
     inkscape:cy="406.70286"
     inkscape:window-x="0"
     inkscape:window-y="0"
     inkscape:window-maximized="1"
     inkscape:current-layer="svg6" />
  <g
     fill="#019bc6"
     id="g4"
     transform="matrix(7.6036361,0,0,7.6036361,25.900399,23.846562)">
    <path
       d="m 124.8,52.1 c -4.3,-2.5 -10,-2.8 -14.8,-1.4 -0.6,-5.2 -4,-9.7 -8,-12.9 l -1.6,-1.3 -1.4,1.6 c -2.7,3.1 -3.5,8.3 -3.1,12.3 0.3,2.9 1.2,5.9 3,8.3 -1.4,0.8 -2.9,1.9 -4.3,2.4 -2.8,1 -5.9,2 -8.9,2 H 79 V 49 H 66 V 24 H 51 V 36 H 26 V 49 H 13 V 63 H 1.8 l -0.2,1.5 c -0.5,6.4 0.3,12.6 3,18.5 l 1.1,2.2 0.1,0.2 c 7.9,13.4 21.7,19 36.8,19 29.2,0 53.3,-13.1 64.3,-40.6 7.4,0.4 15,-1.8 18.6,-8.9 l 0.9,-1.8 z M 28,39 H 38 V 50 H 28 Z m 13.1,44.2 c 0,1.7 -1.4,3.1 -3.1,3.1 -1.7,0 -3.1,-1.4 -3.1,-3.1 0,-1.7 1.4,-3.1 3.1,-3.1 1.7,0.1 3.1,1.4 3.1,3.1 z M 28,52 H 38 V 63 H 28 Z M 15,52 H 26 V 63 H 15 Z m 27.7,50.2 C 26.9,102.1 18.4,96.8 11.4,89.8 c 2.1,0.1 4.1,0.2 5.9,0.2 1.6,0 3.2,0 4.7,-0.1 3.9,-0.2 7.3,-0.7 10.1,-1.5 2.3,5.3 6.5,10.2 14,13.8 z M 51,63 H 40 V 52 H 51 Z M 51,50 H 40 V 39 H 51 Z M 64,63 H 53 V 52 H 64 Z M 64,50 H 53 V 39 H 64 Z M 64,37 H 53 V 26 H 64 Z M 77,63 H 66 V 52 H 77 Z M 38.8,81.2 C 38.6,81.1 38.3,81 38,81 c -1.2,0 -2.2,1 -2.2,2.2 0,1.2 1,2.2 2.2,2.2 1.2,0 2.2,-1 2.2,-2.2 0,-0.3 -0.1,-0.6 -0.2,-0.8 -0.2,0.3 -0.4,0.5 -0.8,0.5 -0.5,0 -0.9,-0.4 -0.9,-0.9 0.1,-0.4 0.3,-0.7 0.5,-0.8 z"
       id="path2" />
  </g>
</svg>
