<?xml version="1.0" encoding="UTF-8" standalone="no"?>
<svg
   xmlns:dc="http://purl.org/dc/elements/1.1/"
   xmlns:cc="http://creativecommons.org/ns#"
   xmlns:rdf="http://www.w3.org/1999/02/22-rdf-syntax-ns#"
   xmlns:svg="http://www.w3.org/2000/svg"
   xmlns="http://www.w3.org/2000/svg"
   xmlns:sodipodi="http://sodipodi.sourceforge.net/DTD/sodipodi-0.dtd"
   xmlns:inkscape="http://www.inkscape.org/namespaces/inkscape"
   version="1.1"
   width="1024"
   height="1024"
   id="svg4"
   sodipodi:docname="elisp.svg"
   inkscape:version="1.0.2 (e86c870879, 2021-01-15, custom)">
  <metadata
     id="metadata10">
    <rdf:RDF>
      <cc:Work
         rdf:about="">
        <dc:format>image/svg+xml</dc:format>
        <dc:type
           rdf:resource="http://purl.org/dc/dcmitype/StillImage" />
        <dc:title />
      </cc:Work>
    </rdf:RDF>
  </metadata>
  <defs
     id="defs8" />
  <sodipodi:namedview
     pagecolor="#ffffff"
     bordercolor="#666666"
     borderopacity="1"
     objecttolerance="10"
     gridtolerance="10"
     guidetolerance="10"
     inkscape:pageopacity="0"
     inkscape:pageshadow="2"
     inkscape:window-width="1920"
     inkscape:window-height="1080"
     id="namedview6"
     showgrid="false"
     inkscape:zoom="0.69824219"
     inkscape:cx="2.7606934"
     inkscape:cy="619.61491"
     inkscape:window-x="1920"
     inkscape:window-y="0"
     inkscape:window-maximized="1"
     inkscape:current-layer="svg4"
     inkscape:document-rotation="0" />
  <path
     d="M 426.39478,953.61 C 221.3517,913.2744 66.551654,730.93741 66.551654,511.99938 66.551654,263.47171 265.98542,62 512.00002,62 c 189.80994,0 351.78823,119.98166 415.93969,288.92343 -25.70156,8.21813 -81.48389,46.93929 -199.56509,190.40905 l -0.37568,3.56396 c -52.47864,60.5212 -108.2106,128.59877 -145.7532,175.08017 -15.93663,-3.63885 -33.15243,-7.57482 -52.0502,-12.06324 -120.92576,-30.4024 -157.06389,-59.5157 -175.11824,-80.58524 -17.11638,-21.11618 3.21286,-64.97035 100.65299,-86.48429 49.33575,-12.00553 233.08095,-14.21169 233.08095,-14.21169 -52.7156,-41.853 -151.68294,-116.78354 -171.91276,-132.7189 -17.74129,-13.97595 -46.33283,-35.42361 -49.40573,-54.58901 -4.14589,-18.65712 25.22157,-27.64009 40.76896,-28.67625 50.0969,-3.45471 118.50601,2.41852 179.31324,14.51124 30.56565,6.07825 35.93189,5.18205 35.93189,5.18205 43.53247,2.07356 77.39203,-20.72948 75.66468,-68.75406 -0.34621,-48.71577 -49.05218,-87.77825 -102.95857,-89.48473 -50.76477,-1.60581 -175.85979,7.25561 -175.85979,7.25561 145.80114,30.05864 169.63664,37.72922 177.24092,55.2802 4.49211,10.36536 -7.50236,20.67054 -47.67836,18.65714 -43.73874,-2.19264 -133.36223,-12.78389 -133.36223,-12.78389 -85.33884,-13.12886 -144.7637,-25.56653 -170.67646,8.2918 -16.92856,22.12042 2.41854,49.06076 10.01915,64.95437 33.85956,59.07987 92.40783,99.61314 129.56252,128.18015 13.97965,10.74837 56.66135,34.5495 56.66135,34.5495 C 409.44902,440.21048 303.72569,460.59374 236.699,495.8357 c -77.04585,45.60481 -63.86664,122.56592 58.38991,194.51565 72.20877,42.49633 108.16277,62.91024 226.39127,77.4264 7.2925,1.16263 13.79428,2.2381 19.83328,3.26442 -2.27983,2.87281 -15.13862,21.23279 -20.62018,29.29009 -10.234,0.59669 -19.04511,1.05952 -24.40763,1.42903 -56.67977,3.90894 -203.26168,4.88618 -203.99464,4.88618 0,0 39.61498,11.50223 92.34649,18.07771 15.69843,1.95813 63.77212,7.49501 112.8832,10.20081 -34.47341,52.42217 -59.03692,94.16099 -71.12592,118.68401 z M 943.94505,401.81587 c -38.00051,70.9602 -149.11951,192.77481 -149.11951,192.77481 l -4.29201,-1.32469 c -45.01064,54.32386 -90.34903,106.21811 -126.39632,146.66175 30.8407,8.74357 54.5387,18.19428 75.26199,32.65149 17.03417,11.88278 10.72508,24.20506 10.36535,27.98633 -13.81634,15.85309 -38.64382,23.79865 -82.46602,30.02305 -26.21603,3.72354 -65.74379,5.0838 -91.65162,5.57979 -29.26923,29.15631 -91.29191,89.44544 -128.22682,121.06575 21.09163,3.095 42.63997,4.76585 64.57993,4.76585 246.01457,0 445.44833,-201.47171 445.44833,-450.00065 0,-38.01892 -4.71552,-74.91946 -13.5033,-110.18348 z"
     id="path2"
     style="stroke-width:1.75781;fill:#815fb7;fill-opacity:1" />
</svg>
