<?xml version="1.0" encoding="UTF-8" standalone="no"?>
<svg
   xmlns:dc="http://purl.org/dc/elements/1.1/"
   xmlns:cc="http://creativecommons.org/ns#"
   xmlns:rdf="http://www.w3.org/1999/02/22-rdf-syntax-ns#"
   xmlns:svg="http://www.w3.org/2000/svg"
   xmlns="http://www.w3.org/2000/svg"
   xmlns:sodipodi="http://sodipodi.sourceforge.net/DTD/sodipodi-0.dtd"
   xmlns:inkscape="http://www.inkscape.org/namespaces/inkscape"
   viewBox="0 0 1024 1024"
   version="1.1"
   id="svg6"
   sodipodi:docname="erlang-plain.svg"
   width="1024"
   height="1024"
   inkscape:version="1.0.2 (e86c870879, 2021-01-15, custom)">
  <metadata
     id="metadata12">
    <rdf:RDF>
      <cc:Work
         rdf:about="">
        <dc:format>image/svg+xml</dc:format>
        <dc:type
           rdf:resource="http://purl.org/dc/dcmitype/StillImage" />
        <dc:title></dc:title>
      </cc:Work>
    </rdf:RDF>
  </metadata>
  <defs
     id="defs10" />
  <sodipodi:namedview
     pagecolor="#ffffff"
     bordercolor="#666666"
     borderopacity="1"
     objecttolerance="10"
     gridtolerance="10"
     guidetolerance="10"
     inkscape:pageopacity="0"
     inkscape:pageshadow="2"
     inkscape:window-width="1920"
     inkscape:window-height="1080"
     id="namedview8"
     showgrid="false"
     inkscape:zoom="0.49373179"
     inkscape:cx="12.053412"
     inkscape:cy="155.26296"
     inkscape:window-x="0"
     inkscape:window-y="0"
     inkscape:window-maximized="1"
     inkscape:current-layer="svg6" />
  <g
     fill="#a90533"
     id="g4"
     transform="matrix(7.9365079,0,0,7.9365079,4.0634944,4.0634944)">
    <path
       d="M 18.2,24.1 1,24 v 80 h 19.7 v -0.1 C 11,93.6 5.2,79.2 5.3,62.1 5.2,47 10,33.9 18.2,24.1 Z m 92.9,79.8 z M 127,24 h -16.4 c 6.2,9 9.6,19.3 9.1,32.1 0.1,1.2 0.1,1.9 0,4.9 H 46.3 c 0,22 7.7,38.3 27.3,38.4 13.5,-0.1 23.2,-10.1 29.9,-20.9 l 19,9.5 c -3.4,6.1 -7.2,11 -11.4,16 H 127 Z m -16.5,0.1 z M 65.1,25.6 C 56.1,25.6 48.3,33 47.5,42 H 81 C 80.7,33 74.2,25.6 65.1,25.6 Z"
       id="path2" />
  </g>
</svg>
