<?xml version="1.0" encoding="UTF-8" standalone="no"?>
<svg
   xmlns:dc="http://purl.org/dc/elements/1.1/"
   xmlns:cc="http://creativecommons.org/ns#"
   xmlns:rdf="http://www.w3.org/1999/02/22-rdf-syntax-ns#"
   xmlns:svg="http://www.w3.org/2000/svg"
   xmlns="http://www.w3.org/2000/svg"
   xmlns:sodipodi="http://sodipodi.sourceforge.net/DTD/sodipodi-0.dtd"
   xmlns:inkscape="http://www.inkscape.org/namespaces/inkscape"
   viewBox="0 0 1024 1024"
   version="1.1"
   id="svg4"
   sodipodi:docname="git.svg"
   width="1024"
   height="1024"
   inkscape:version="1.0.2 (e86c870879, 2021-01-15, custom)">
  <metadata
     id="metadata10">
    <rdf:RDF>
      <cc:Work
         rdf:about="">
        <dc:format>image/svg+xml</dc:format>
        <dc:type
           rdf:resource="http://purl.org/dc/dcmitype/StillImage" />
        <dc:title></dc:title>
      </cc:Work>
    </rdf:RDF>
  </metadata>
  <defs
     id="defs8" />
  <sodipodi:namedview
     pagecolor="#ffffff"
     bordercolor="#666666"
     borderopacity="1"
     objecttolerance="10"
     gridtolerance="10"
     guidetolerance="10"
     inkscape:pageopacity="0"
     inkscape:pageshadow="2"
     inkscape:window-width="1920"
     inkscape:window-height="1080"
     id="namedview6"
     showgrid="false"
     inkscape:zoom="0.49373179"
     inkscape:cx="-264.23274"
     inkscape:cy="259.58347"
     inkscape:window-x="0"
     inkscape:window-y="0"
     inkscape:window-maximized="1"
     inkscape:current-layer="svg4" />
  <path
     fill="#f34f29"
     d="M 945.0275,471.91373 552.07156,78.972052 c -22.61515,-22.629403 -59.31841,-22.629403 -81.9692,0 L 388.51103,160.57764 492.0188,264.08541 c 24.06245,-8.12063 51.63981,-2.6736 70.81135,16.49794 19.27135,19.29274 24.6756,47.10537 16.35534,71.24625 l 99.75759,99.76472 c 24.13375,-8.32026 51.98916,-2.94453 71.25339,16.36247 26.94995,26.92857 26.94995,70.58321 0,97.52603 -26.94995,26.94995 -70.59034,26.94995 -97.55454,0 -20.26237,-20.27663 -25.27449,-50.04278 -15.00785,-75.0107 l -93.02723,-93.02723 -0.0143,244.83816 c 6.57351,3.24397 12.76914,7.57878 18.24469,13.03293 26.93569,26.92857 26.93569,70.56895 0,97.55455 -26.94282,26.92856 -70.61172,26.92856 -97.52603,0 -26.93569,-26.97847 -26.93569,-70.61885 0,-97.55455 6.65907,-6.65193 14.35905,-11.67831 22.5795,-15.04349 V 393.16712 c -8.22041,-3.36518 -15.90613,-8.35591 -22.57946,-15.05062 -20.40496,-20.39071 -25.31726,-50.33509 -14.85099,-75.40283 L 348.41406,200.66747 78.971598,470.09568 c -22.636532,22.65079 -22.636532,59.35406 0,81.99059 L 471.93467,945.02795 c 22.6294,22.6294 59.31841,22.6294 81.98346,0 l 391.11649,-391.1165 c 22.62941,-22.64366 22.62941,-59.36832 -0.007,-81.99772 z"
     id="path2"
     style="stroke-width:7.12962" />
</svg>
