<?xml version="1.0" encoding="UTF-8" standalone="no"?>
<svg
   xmlns:dc="http://purl.org/dc/elements/1.1/"
   xmlns:cc="http://creativecommons.org/ns#"
   xmlns:rdf="http://www.w3.org/1999/02/22-rdf-syntax-ns#"
   xmlns:svg="http://www.w3.org/2000/svg"
   xmlns="http://www.w3.org/2000/svg"
   xmlns:sodipodi="http://sodipodi.sourceforge.net/DTD/sodipodi-0.dtd"
   xmlns:inkscape="http://www.inkscape.org/namespaces/inkscape"
   version="1.1"
   width="1024"
   height="1024"
   id="svg4"
   sodipodi:docname="go.svg"
   inkscape:version="1.0.2 (e86c870879, 2021-01-15, custom)">
  <metadata
     id="metadata10">
    <rdf:RDF>
      <cc:Work
         rdf:about="">
        <dc:format>image/svg+xml</dc:format>
        <dc:type
           rdf:resource="http://purl.org/dc/dcmitype/StillImage" />
        <dc:title />
      </cc:Work>
    </rdf:RDF>
  </metadata>
  <defs
     id="defs8" />
  <sodipodi:namedview
     pagecolor="#ffffff"
     bordercolor="#666666"
     borderopacity="1"
     objecttolerance="10"
     gridtolerance="10"
     guidetolerance="10"
     inkscape:pageopacity="0"
     inkscape:pageshadow="2"
     inkscape:window-width="1920"
     inkscape:window-height="1080"
     id="namedview6"
     showgrid="false"
     inkscape:zoom="0.49373179"
     inkscape:cx="-64.316474"
     inkscape:cy="530.68653"
     inkscape:window-x="1920"
     inkscape:window-y="0"
     inkscape:window-maximized="1"
     inkscape:current-layer="svg4"
     inkscape:document-rotation="0" />
  <path
     d="m 287.81473,355.30872 c -20.44334,0 -37.01774,17.94022 -37.01774,40.07106 0,22.13084 16.57264,40.07106 37.01774,40.07106 20.4451,0 37.01774,-17.94022 37.01774,-40.07106 0,-22.13084 -16.5744,-40.07106 -37.01774,-40.07106 z m 16.79237,59.5353 c -4.84629,0 -8.77851,-4.61425 -8.77851,-10.30429 0,-5.69003 3.93047,-10.30429 8.77851,-10.30429 4.84804,0 8.77851,4.61426 8.77851,10.30429 0,5.69004 -3.93047,10.30429 -8.77851,10.30429 z M 597.16312,345.414 c -20.02322,0 -36.25485,17.94022 -36.25485,40.07106 0,22.13084 16.23163,40.07106 36.25485,40.07106 20.02323,0 36.25486,-17.94022 36.25486,-40.07106 0,-22.13084 -16.23163,-40.07106 -36.25486,-40.07106 z m 16.79061,59.53354 c -4.6371,0 -8.3953,-4.61425 -8.3953,-10.30428 0,-5.69004 3.75996,-10.30429 8.3953,-10.30429 4.63535,0 8.39531,4.61425 8.39531,10.30429 0,5.69179 -3.75996,10.30428 -8.39531,10.30428 z M 889.39922,247.4547 c -26.71345,-7.25097 -55.71734,-1.90723 -83.57689,16.79061 -24.80623,-20.99002 -53.42866,-37.01774 -85.48587,-49.23102 -56.86343,-20.99002 -123.07666,-29.00388 -212.75842,-29.00388 -95.78841,7.63242 -166.96218,22.5158 -225.73459,51.13824 -23.66014,11.44863 -44.65016,25.18768 -62.96831,41.21716 -28.241,-17.55526 -57.62633,-21.75292 -84.72123,-13.35761 -25.18767,7.63242 -46.940584,25.56912 -59.916746,48.84781 -12.976162,23.2787 -16.027722,49.99391 -7.250971,72.89116 8.778509,22.89725 29.003884,40.83571 59.152097,51.90113 -9.54139,38.54528 -14.50194,79.37923 -15.26483,124.41084 -2.75976,101.25695 14.05898,237.98829 15.5619,274.93045 h 800.70407 c 0.20215,-33.8449 7.16308,-160.81862 -8.35312,-301.26246 -4.19765,-40.45251 -10.68573,-77.85346 -19.84393,-112.96222 30.91287,-11.83182 51.13824,-31.29431 59.1521,-56.48023 7.63242,-23.28045 3.81621,-49.61246 -9.15995,-72.89115 -13.35761,-22.89725 -34.72908,-40.07106 -59.53355,-46.94059 z M 224.08353,417.89734 c -8.01386,-40.45251 0.76289,-75.56303 23.66014,-102.27824 20.60858,-24.04334 51.90113,-39.30817 85.86731,-43.88727 33.96443,-4.19766 68.31206,2.67011 94.26263,20.22713 29.00388,19.46249 46.55914,50.37535 48.84957,90.06497 8.3953,142.3493 -216.76624,176.31373 -252.63965,35.87341 z m 269.89784,202.00414 c -0.38145,6.86952 -0.76289,9.5414 -1.14434,13.35761 -0.76289,14.12049 -0.7084,19.19178 0.43594,29.87927 -18.53788,19.62772 -32.71287,21.59119 -40.42966,8.46738 -9.15819,-16.02773 -11.25702,-38.12693 -8.63964,-57.53844 l 49.7232,-15.70252 c 0,0 0.81739,12.75995 0.0545,21.5367 z m 64.69975,27.38142 c 0,7.25097 -0.38144,13.73905 -1.52578,19.84393 -2.67011,4.58086 -9.60819,13.26796 -22.47186,13.28202 -12.86366,0.0141 -18.28299,-7.4619 -22.48064,-17.0033 -1.14434,-10.30429 0.0756,-41.81481 0.84023,-48.68258 0.76289,-8.77675 0.84023,-13.50527 0.84023,-18.46581 0,0 40.28904,10.07226 42.80798,13.42968 2.51894,3.35742 1.99511,31.48943 1.99511,37.5943 z m 36.80857,-55.80523 c -7.25097,8.01386 -14.50195,10.68574 -23.2787,10.30429 -6.86952,-0.38144 -11.44862,-2.29043 -26.71345,-8.3953 -15.26483,-6.48809 -23.6619,-8.77676 -33.58474,-9.15996 -9.5414,-1.14433 -19.92303,1.30078 -40.07106,8.39531 -29.99002,10.56093 -43.50583,9.5414 -52.66403,-7.25097 -12.7037,-22.93592 4.29258,-53.36012 29.55232,-59.92906 -1.27792,-2.475 -2.20253,-4.92187 -2.50839,-8.17909 -1.07051,-24.26131 18.13182,-43.25622 48.94625,-48.06383 28.43787,-4.43672 62.5271,5.08359 69.69194,31.44021 2.27812,8.58163 0.50273,16.64119 -5.03086,23.58631 14.93261,7.3037 27.95623,16.77127 36.04216,26.79783 11.44862,13.73905 11.83183,27.4781 -0.38144,40.4525 z M 764.3169,447.30903 c -19.46249,23.66014 -49.23102,39.68962 -82.43255,45.41306 -72.89116,12.21151 -138.91279,-25.56913 -151.5075,-99.60637 v -0.38145 C 521.21689,242.75255 750.1964,202.68325 784.16083,348.847 c 9.15995,38.16208 1.52578,72.12827 -19.84393,98.46028 z m -209.18304,55.94586 c 1.76308,6.65683 -0.17403,12.44179 -5.92031,17.68182 -15.35624,14.00448 -53.55699,19.26385 -77.11342,10.61718 -6.59882,-2.4205 -14.67069,-7.01367 -15.84139,-15.16464 -0.55195,-14.90799 9.78222,-32.44919 40.46305,-37.23747 32.30681,-5.03613 54.20035,8.65371 58.41207,24.10311 z"
     id="path2"
     style="stroke-width:1.75781;fill:#00aed8;fill-opacity:1" />
</svg>
