<?xml version="1.0" encoding="UTF-8" standalone="no"?>
<svg
   xmlns:dc="http://purl.org/dc/elements/1.1/"
   xmlns:cc="http://creativecommons.org/ns#"
   xmlns:rdf="http://www.w3.org/1999/02/22-rdf-syntax-ns#"
   xmlns:svg="http://www.w3.org/2000/svg"
   xmlns="http://www.w3.org/2000/svg"
   xmlns:sodipodi="http://sodipodi.sourceforge.net/DTD/sodipodi-0.dtd"
   xmlns:inkscape="http://www.inkscape.org/namespaces/inkscape"
   version="1.1"
   viewBox="-10 0 1024 1024"
   id="svg4"
   sodipodi:docname="iso.svg"
   width="1024"
   height="1024"
   inkscape:version="1.0.2 (e86c870879, 2021-01-15, custom)">
  <metadata
     id="metadata10">
    <rdf:RDF>
      <cc:Work
         rdf:about="">
        <dc:format>image/svg+xml</dc:format>
        <dc:type
           rdf:resource="http://purl.org/dc/dcmitype/StillImage" />
        <dc:title />
      </cc:Work>
    </rdf:RDF>
  </metadata>
  <defs
     id="defs8" />
  <sodipodi:namedview
     pagecolor="#ffffff"
     bordercolor="#666666"
     borderopacity="1"
     objecttolerance="10"
     gridtolerance="10"
     guidetolerance="10"
     inkscape:pageopacity="0"
     inkscape:pageshadow="2"
     inkscape:window-width="1920"
     inkscape:window-height="1080"
     id="namedview6"
     showgrid="false"
     inkscape:zoom="0.715"
     inkscape:cx="344"
     inkscape:cy="500"
     inkscape:window-x="1920"
     inkscape:window-y="0"
     inkscape:window-maximized="1"
     inkscape:current-layer="svg4"
     inkscape:document-rotation="0" />
  <path
     fill="currentColor"
     d="m 216.54328,37 h 570.91344 q 39.96395,0 66.79688,26.832933 26.83294,26.832937 29.11658,66.796867 V 893.3702 Q 881.08654,933.33413 854.2536,960.16707 827.42068,987 787.45672,987 H 216.54328 Q 176.57933,987 149.7464,960.16707 122.91347,933.33413 120.62982,893.3702 V 130.6298 Q 122.91347,90.66587 149.7464,63.832933 176.57933,37 216.54328,37 Z m 285.45674,93.6298 q -119.89183,4.56732 -201.53246,85.06612 -81.64063,80.49879 -83.92428,200.39062 2.28365,122.17548 83.92428,202.67428 81.64063,80.4988 206.09975,82.78245 L 464.31971,596.4952 q -9.13461,-18.26924 -4.56729,-37.10938 4.56729,-18.84015 21.6947,-26.83294 l 43.38942,-25.12018 q 18.26923,-9.13462 35.39663,-4.56732 17.1274,4.56732 28.54568,22.83654 l 91.34616,113.04087 q 49.09855,-37.68029 78.21513,-95.34255 29.11658,-57.66226 29.11658,-127.3137 -2.28365,-119.89183 -83.92427,-200.39062 -81.64063,-80.4988 -201.53243,-85.06612 z m 0,238.64183 q 20.55288,0 33.68388,13.13102 13.13102,13.131 13.13102,33.68389 0,20.55288 -13.13102,33.68389 -13.13101,13.13102 -33.68388,13.13102 -20.5529,0 -33.6839,-13.13102 -13.13102,-13.13101 -13.13102,-33.68389 0,-20.55289 13.13102,-33.68389 13.131,-13.13102 33.6839,-13.13102 z m -238.64184,428.1851 q -20.55288,0 -33.68389,13.13101 -13.13101,13.13101 -13.13101,33.68389 0,20.55289 13.13101,33.6839 13.13101,13.13101 33.68389,13.13101 20.55289,0 33.6839,-13.13101 13.131,-13.13101 13.131,-33.6839 0,-20.55288 -13.131,-33.68389 -13.13101,-13.13101 -33.6839,-13.13101 z M 506.56731,572.51683 624.17547,872.8173 747.49279,802.02404 546.53127,547.39663 Z"
     id="path2"
     style="stroke-width:1.14183;fill:#40596b;fill-opacity:1" />
</svg>
