<?xml version="1.0" encoding="UTF-8" standalone="no"?>
<svg
   xmlns:dc="http://purl.org/dc/elements/1.1/"
   xmlns:cc="http://creativecommons.org/ns#"
   xmlns:rdf="http://www.w3.org/1999/02/22-rdf-syntax-ns#"
   xmlns:svg="http://www.w3.org/2000/svg"
   xmlns="http://www.w3.org/2000/svg"
   xmlns:sodipodi="http://sodipodi.sourceforge.net/DTD/sodipodi-0.dtd"
   xmlns:inkscape="http://www.inkscape.org/namespaces/inkscape"
   version="1.1"
   width="1024"
   height="1024"
   id="svg4"
   sodipodi:docname="jsx.svg"
   inkscape:version="1.0.2 (e86c870879, 2021-01-15, custom)">
  <metadata
     id="metadata10">
    <rdf:RDF>
      <cc:Work
         rdf:about="">
        <dc:format>image/svg+xml</dc:format>
        <dc:type
           rdf:resource="http://purl.org/dc/dcmitype/StillImage" />
        <dc:title />
      </cc:Work>
    </rdf:RDF>
  </metadata>
  <defs
     id="defs8" />
  <sodipodi:namedview
     pagecolor="#ffffff"
     bordercolor="#666666"
     borderopacity="1"
     objecttolerance="10"
     gridtolerance="10"
     guidetolerance="10"
     inkscape:pageopacity="0"
     inkscape:pageshadow="2"
     inkscape:window-width="1920"
     inkscape:window-height="1080"
     id="namedview6"
     showgrid="false"
     inkscape:zoom="0.49373179"
     inkscape:cx="-63.130027"
     inkscape:cy="613.90045"
     inkscape:window-x="1920"
     inkscape:window-y="0"
     inkscape:window-maximized="1"
     inkscape:current-layer="svg4"
     inkscape:document-rotation="0" />
  <path
     d="m 590.57892,509.93564 c 0,-61.60004 -66.70188,-100.30913 -119.77525,-69.50907 -53.07336,30.79998 -53.07336,108.21814 10e-6,139.01811 53.07336,30.80002 119.77524,-7.90903 119.77524,-69.50904 z M 773.40933,361.98037 C 826.25052,109.39964 709.99997,30.137919 512.37402,212.96832 326.37318,38.592501 193.91795,93.547304 250.28188,360.92355 -9.6306783,439.2785 7.5899157,586.7771 252.39553,662.11814 196.38391,908.35797 301.0094,998.18793 512.37402,812.18704 717.39773,996.07425 826.20845,909.97786 770.23886,661.06136 1037.2629,570.52672 1013.3082,439.48065 773.40933,361.98037 Z m -35.93199,-9.5114 C 695.58735,343.02 655.05418,336.14188 613.82905,332.38933 592.10896,300.62993 566.81046,268.90525 537.73779,239.38891 696.18323,87.407744 789.56664,134.89603 737.47734,352.46897 Z M 328.48681,558.54948 c 15.67624,33.46602 36.2843,64.11391 51.78433,89.82996 -25.23977,-2.58141 -52.43091,-6.50151 -81.37539,-11.62502 9.27456,-25.96147 19.14886,-52.03162 29.59106,-78.20494 z m -2.11363,-90.88677 c -11.53039,-27.678 -22.05217,-54.39118 -30.6479,-79.26175 29.8804,-6.19372 59.16095,-11.81727 84.54586,-13.7387 -18.89264,29.67891 -36.83748,60.70915 -53.89796,93.00045 z m 22.19326,46.50022 c 25.84327,-51.7565 53.1807,-100.88418 83.48904,-144.78479 53.7785,-3.09266 106.98527,-2.81867 159.58027,1.05683 29.49819,41.10233 57.02979,90.22822 83.48903,143.72796 -19.80035,40.91678 -47.91579,88.07211 -80.31855,138.44383 -54.10037,4.0967 -109.57432,3.5301 -165.92122,0 -28.55848,-43.75213 -55.37936,-89.83555 -80.31857,-138.44383 z m 346.63799,44.38655 c 10.26236,24.90194 19.7459,50.28282 28.5342,76.09125 -27.12443,5.71156 -53.88182,9.87343 -80.31853,12.68192 18.09536,-28.03627 35.26154,-57.80498 51.78433,-88.77317 z M 643.4201,374.66226 c 28.81572,3.94464 56.65126,8.87063 83.48901,14.79551 -8.97832,26.68015 -19.1793,52.75589 -30.64783,78.20494 -16.3581,-32.26343 -33.92093,-63.3147 -52.84118,-93.00045 z m -81.37538,-46.50022 c -32.91441,-1.29122 -66.39822,-1.2498 -100.3982,0 14.88468,-19.57611 31.47506,-40.02511 49.67068,-61.29573 17.73248,19.14072 34.5332,39.74284 50.72752,61.29573 z m -76.09128,-88.77313 c -29.0727,29.51634 -54.37116,60.18421 -76.09125,91.94361 -41.22514,3.75254 -82.81498,10.63065 -124.70513,20.07963 C 235.48637,130.53612 327.50804,87.407744 485.95344,239.38891 Z M 261.90695,627.243 C 41.735417,561.01534 52.303655,457.79896 259.7933,396.85556 c 12.69245,38.51534 28.05807,77.63133 45.44339,115.19369 -16.89317,38.84627 -31.84854,78.74521 -43.32974,115.19375 z m 27.4774,44.38657 c 37.34113,9.1591 76.91265,13.55601 118.36419,17.96599 24.94125,35.19856 50.7702,67.9227 78.2049,96.17093 C 324.61181,940.41482 234.66911,884.22775 289.38435,671.62957 Z m 221.93285,87.71629 c -19.11892,-19.79814 -36.96933,-42.23159 -53.89797,-66.57984 37.73497,0.79508 74.18016,0.88332 108.85276,0 -16.79213,23.82226 -35.13148,45.99308 -54.95479,66.57984 z m 26.42059,26.42063 c 29.4374,-31.98391 55.38836,-64.40794 78.20491,-97.22778 38.94314,-2.86536 78.39715,-8.84867 118.36422,-17.96597 55.20957,226.28945 -45.03537,259.70446 -196.56913,115.19375 z M 760.72747,625.12935 c -11.32047,-36.44854 -25.61621,-74.23383 -42.27294,-113.0801 17.14204,-37.56236 31.87188,-75.62153 44.38657,-114.13687 202.55791,61.29575 218.76243,159.22796 -2.11363,227.21697 z"
     id="path2"
     style="stroke-width:1.75781;fill:#5adafd;fill-opacity:1" />
</svg>
