<?xml version="1.0" encoding="UTF-8" standalone="no"?>
<svg
   xmlns:dc="http://purl.org/dc/elements/1.1/"
   xmlns:cc="http://creativecommons.org/ns#"
   xmlns:rdf="http://www.w3.org/1999/02/22-rdf-syntax-ns#"
   xmlns:svg="http://www.w3.org/2000/svg"
   xmlns="http://www.w3.org/2000/svg"
   xmlns:sodipodi="http://sodipodi.sourceforge.net/DTD/sodipodi-0.dtd"
   xmlns:inkscape="http://www.inkscape.org/namespaces/inkscape"
   version="1.1"
   viewBox="-10 0 1024 1024"
   id="svg4"
   sodipodi:docname="license2.svg"
   width="1024"
   height="1024"
   inkscape:version="1.0.2 (e86c870879, 2021-01-15, custom)">
  <metadata
     id="metadata10">
    <rdf:RDF>
      <cc:Work
         rdf:about="">
        <dc:format>image/svg+xml</dc:format>
        <dc:type
           rdf:resource="http://purl.org/dc/dcmitype/StillImage" />
        <dc:title />
      </cc:Work>
    </rdf:RDF>
  </metadata>
  <defs
     id="defs8" />
  <sodipodi:namedview
     pagecolor="#ffffff"
     bordercolor="#666666"
     borderopacity="1"
     objecttolerance="10"
     gridtolerance="10"
     guidetolerance="10"
     inkscape:pageopacity="0"
     inkscape:pageshadow="2"
     inkscape:window-width="1920"
     inkscape:window-height="1080"
     id="namedview6"
     showgrid="false"
     inkscape:zoom="0.715"
     inkscape:cx="479"
     inkscape:cy="500"
     inkscape:window-x="1920"
     inkscape:window-y="0"
     inkscape:window-maximized="1"
     inkscape:current-layer="svg4"
     inkscape:document-rotation="0" />
  <path
     fill="currentColor"
     d="m 154.61194,322.60768 h 253.19829 v 62.79317 H 154.61194 Z m 0,189.39232 V 448.19403 H 407.81023 V 512 Z m 0,126.59915 v -62.79318 h 253.19829 v 62.79318 z M 850.40085,322.60768 v 62.79317 H 597.20256 v -62.79317 z m 0,125.58635 V 512 H 597.20256 v -63.80597 z m 0,127.61194 v 62.79318 H 597.20256 V 575.80597 Z M 977,194.99574 V 765.1983 q 0,63.80597 -62.79318,63.80597 H 565.80597 L 502,891.79744 439.20682,829.00427 H 90.80597 Q 27,829.00427 27,765.1983 V 194.99574 q 0,-62.79318 63.80597,-62.79318 H 439.20682 L 502,194.99574 565.80597,132.20256 H 914.20682 Q 977,132.20256 977,194.99574 Z M 470.60341,227.40512 439.20682,194.99574 H 90.80597 V 765.1983 H 470.60341 Z M 914.20682,194.99574 H 565.80597 l -32.40938,32.40938 V 765.1983 h 380.81023 z"
     id="path2"
     style="stroke-width:1.01279;fill:#cbcb41;fill-opacity:1" />
</svg>
