<?xml version="1.0" encoding="UTF-8" standalone="no"?>
<svg
   xmlns:dc="http://purl.org/dc/elements/1.1/"
   xmlns:cc="http://creativecommons.org/ns#"
   xmlns:rdf="http://www.w3.org/1999/02/22-rdf-syntax-ns#"
   xmlns:svg="http://www.w3.org/2000/svg"
   xmlns="http://www.w3.org/2000/svg"
   xmlns:sodipodi="http://sodipodi.sourceforge.net/DTD/sodipodi-0.dtd"
   xmlns:inkscape="http://www.inkscape.org/namespaces/inkscape"
   version="1.1"
   viewBox="-10 0 1034 1024"
   id="svg4"
   sodipodi:docname="log_file.svg"
   inkscape:version="1.0.2 (e86c870879, 2021-01-15, custom)">
  <metadata
     id="metadata10">
    <rdf:RDF>
      <cc:Work
         rdf:about="">
        <dc:format>image/svg+xml</dc:format>
        <dc:type
           rdf:resource="http://purl.org/dc/dcmitype/StillImage" />
      </cc:Work>
    </rdf:RDF>
  </metadata>
  <defs
     id="defs8" />
  <sodipodi:namedview
     pagecolor="#ffffff"
     bordercolor="#666666"
     borderopacity="1"
     objecttolerance="10"
     gridtolerance="10"
     guidetolerance="10"
     inkscape:pageopacity="0"
     inkscape:pageshadow="2"
     inkscape:window-width="1920"
     inkscape:window-height="1080"
     id="namedview6"
     showgrid="false"
     inkscape:zoom="0.69824219"
     inkscape:cx="517"
     inkscape:cy="512"
     inkscape:window-x="1920"
     inkscape:window-y="0"
     inkscape:window-maximized="1"
     inkscape:current-layer="svg4" />
  <path
     fill="currentColor"
     d="M663 62l225 225v611q0 64 -65 64h-642q-65 0 -65 -64v-772q0 -64 65 -64h482v0zM823 898v-579l-192 -193h-450v772h642zM218.292 430h43.959v212.539h117.355v37.4609h-161.314v-250zM494.056 430q21.0186 0 38.5332 8.29688q17.5146 8.2959 29.8672 23.9668 q12.3506 15.6699 19.3574 38.7168q7.00586 23.0469 7.00586 52.9141q0.000976562 30.2354 -7.00586 53.834q-7.00488 23.5986 -19.3574 39.6387q-12.3525 16.0391 -29.8672 24.3359q-17.5156 8.29688 -38.5332 8.29688q-21.0186 0 -38.5332 -8.29688 q-17.5146 -8.2959 -29.8672 -24.3359q-12.3506 -16.04 -19.3574 -39.6387q-7.00586 -23.5977 -7.00586 -53.834q-0.000976562 -29.8672 7.00586 -52.9141q7.00488 -23.0459 19.3574 -38.7168q12.3525 -15.6699 29.8672 -23.9668q17.5156 -8.29688 38.5332 -8.29688z M723.806 430q23.9678 0 40.7441 9.40234q16.7773 9.4043 27.4707 20.834l-23.5996 26.5488q-8.48145 -8.48047 -18.6211 -14.0117q-10.1387 -5.53125 -25.9941 -5.53125q-14.3818 0 -26.3652 6.08398t-20.6484 17.3301q-8.66602 11.2461 -13.459 27.4707 q-4.79297 16.2227 -4.79297 36.5039q0.000976562 41.2988 16.7773 64.7129t49.2246 23.4141q9.58887 0 18.4375 -2.76562q8.84961 -2.76562 14.0117 -7.92773v-51.9902h-41.668v-35.0293h80.3848v106.193q-11.7998 11.7998 -31.1582 20.2812 q-19.3584 8.48047 -42.5879 8.48047q-22.8623 0.000976562 -42.5898 -8.11133q-19.7275 -8.11328 -34.1074 -23.9688q-14.3789 -15.8564 -22.6758 -39.0859q-8.29688 -23.2285 -8.29688 -53.0957q0 -29.8682 8.29688 -53.0977q8.2959 -23.2305 22.8613 -39.4551 q14.5635 -16.2236 34.6602 -24.7051q20.0967 -8.48047 43.6953 -8.48047zM494.056 467.242q-23.2285 0 -37.0566 22.4922q-13.8281 22.4941 -13.8281 64.1602q0 42.7715 13.8281 65.8184q13.8271 23.0449 37.0566 23.0449q23.2285 0.00195312 37.0566 -23.0449 q13.8281 -23.0449 13.8281 -65.8184q0 -41.668 -13.8281 -64.1602q-13.8271 -22.4922 -37.0566 -22.4922z"
     id="path2"
     style="fill:#ffaf00;fill-opacity:1" />
</svg>
