<?xml version="1.0" encoding="UTF-8" standalone="no"?>
<svg
   xmlns:dc="http://purl.org/dc/elements/1.1/"
   xmlns:cc="http://creativecommons.org/ns#"
   xmlns:rdf="http://www.w3.org/1999/02/22-rdf-syntax-ns#"
   xmlns:svg="http://www.w3.org/2000/svg"
   xmlns="http://www.w3.org/2000/svg"
   xmlns:sodipodi="http://sodipodi.sourceforge.net/DTD/sodipodi-0.dtd"
   xmlns:inkscape="http://www.inkscape.org/namespaces/inkscape"
   version="1.1"
   width="1024"
   height="1024"
   id="svg6"
   sodipodi:docname="lua.svg"
   inkscape:version="1.0.2 (e86c870879, 2021-01-15, custom)">
  <metadata
     id="metadata12">
    <rdf:RDF>
      <cc:Work
         rdf:about="">
        <dc:format>image/svg+xml</dc:format>
        <dc:type
           rdf:resource="http://purl.org/dc/dcmitype/StillImage" />
        <dc:title />
      </cc:Work>
    </rdf:RDF>
  </metadata>
  <defs
     id="defs10" />
  <sodipodi:namedview
     pagecolor="#ffffff"
     bordercolor="#666666"
     borderopacity="1"
     objecttolerance="10"
     gridtolerance="10"
     guidetolerance="10"
     inkscape:pageopacity="0"
     inkscape:pageshadow="2"
     inkscape:window-width="1920"
     inkscape:window-height="1080"
     id="namedview8"
     showgrid="false"
     inkscape:zoom="0.6982422"
     inkscape:cx="536.37206"
     inkscape:cy="321.75769"
     inkscape:window-x="1920"
     inkscape:window-y="0"
     inkscape:window-maximized="1"
     inkscape:current-layer="svg6"
     inkscape:document-rotation="0" />
  <style
     type="text/css"
     id="style2">.st0{fill-rule:evenodd;clip-rule:evenodd;}</style>
  <path
     class="st0"
     d="m 511.85197,173.66212 c 186.82855,0 338.28293,151.45441 338.28293,338.28294 0,186.82852 -151.45438,338.28291 -338.28293,338.28291 -186.82855,0 -338.28292,-151.45439 -338.28292,-338.28291 0,-186.82851 151.45441,-338.28294 338.28292,-338.28294 z m 140.12676,99.08767 c 54.71933,0 99.07811,44.35877 99.07811,99.07809 0,54.71931 -44.35878,99.07808 -99.07811,99.07808 -54.71931,0 -99.07805,-44.35878 -99.07805,-99.07808 0,-54.71931 44.3588,-99.07809 99.07805,-99.07809 z M 233.03541,192.44188 215.41919,172.22274 c 14.81363,-12.90656 30.65559,-24.96715 47.0854,-35.84646 l 14.80565,22.35908 c -15.45053,10.23069 -30.34692,21.57111 -44.27483,33.70652 z m -95.3834,570.92924 c 10.97051,16.37044 23.11855,32.14509 36.10695,46.88714 l 20.12093,-17.7275 C 181.66825,778.66974 170.24554,763.83691 159.9288,748.44204 Z m 239.48897,-653.4131 -8.52426,-25.425904 c -18.64457,6.250555 -37.06842,13.806779 -54.75948,22.457764 l 11.78094,24.09031 c 16.63932,-8.13704 33.96745,-15.24339 51.5028,-21.12217 z m -183.53887,121.72076 -20.13029,-17.7177 c -12.98793,14.75657 -25.12802,30.53773 -36.08169,46.90535 l 22.28613,14.9151 c 10.2999,-15.3907 21.7142,-30.22911 33.92585,-44.10275 z m -61.7793,92.28899 -24.04636,-11.87072 c -8.704759,17.63257 -16.332061,36.02089 -22.670068,54.65376 l 25.388498,8.63556 c 5.96295,-17.53017 13.13851,-34.82981 21.32793,-51.4186 z m 182.40294,593.16071 c 17.68215,8.60838 36.11116,16.13469 54.77538,22.3703 l 8.49807,-25.43435 c -17.56058,-5.86708 -34.8995,-12.94817 -51.53553,-21.04779 z M 85.187753,657.57096 c 6.357179,18.55151 14.027505,36.92437 22.798667,54.60697 l 24.02391,-11.91561 C 123.75498,683.6188 116.53686,666.3309 110.55661,648.87835 Z M 934.67403,479.27063 961.41219,477.2158 c -1.50864,-19.6299 -4.34537,-39.34445 -8.43075,-58.59603 l -26.23305,5.5678 c 3.84123,18.09693 6.50778,36.62975 7.92564,55.08306 z M 96.043687,429.14787 69.74702,423.89248 c -3.859014,19.31049 -6.475026,39.04703 -7.775082,58.6629 l 26.757764,1.77331 c 1.222894,-18.45004 3.683649,-37.01604 7.313985,-55.18082 z m -7.332223,110.83536 -26.758699,1.75837 c 1.291638,19.64861 3.909052,39.3926 7.780225,58.68484 l 26.292925,-5.27501 c -3.639222,-18.13625 -6.099973,-36.6971 -7.314451,-55.1682 z M 215.72878,851.97416 c 14.82999,12.90702 30.67803,24.95918 47.10409,35.82261 l 14.79258,-22.36847 c -15.44636,-10.21428 -30.34788,-21.54722 -44.29074,-33.68264 z m 534.54967,10.60898 15.0507,22.1945 c 16.31244,-11.06168 32.02068,-23.29717 46.68886,-36.36605 L 794.17826,828.3889 c -13.79089,12.28693 -28.56101,23.79198 -43.89981,34.19424 z M 486.1843,88.767584 484.56252,62 c -19.64815,1.190626 -39.40247,3.696273 -58.71341,7.448197 l 5.1151,26.324724 c 18.16152,-3.528855 36.74013,-5.885326 55.22009,-7.005337 z m 346.99095,699.949956 20.32389,17.4937 c 12.82568,-14.90011 24.79082,-30.81408 35.56257,-47.30051 l -22.44885,-14.66909 c -10.12919,15.50244 -21.37982,30.46617 -33.43761,44.4759 z m 60.76027,-92.9661 24.17547,11.60696 c 8.51112,-17.72846 15.93642,-36.1986 22.07101,-54.89882 l -25.4811,-8.35778 c -5.77073,17.59376 -12.75738,34.97152 -20.76538,51.64964 z m 41.33618,-160.8225 c -1.01946,18.45983 -3.27634,37.05061 -6.7079,55.25608 l 26.3528,4.96732 c 3.64855,-19.354 6.04755,-39.11854 7.13063,-58.74568 z M 936.89444,361.653 c -6.55736,-18.47483 -14.42783,-36.76211 -23.39163,-54.35354 l -23.89301,12.17471 c 8.43639,16.5584 15.84295,33.76729 22.01306,51.14922 z M 426.22557,954.54483 c 19.32781,3.75423 39.07927,6.26269 58.70684,7.45517 l 1.62554,-26.76804 c -18.46032,-1.12144 -37.0385,-3.48021 -55.21821,-7.01187 z M 602.37235,70.351689 c -19.27449,-3.947867 -38.99981,-6.65507 -58.62878,-8.046316 l -1.89679,26.749347 c 18.46268,1.308473 37.01607,3.854804 55.1439,7.568381 z m -60.15613,864.591261 1.90613,26.74937 c 19.63646,-1.40016 39.36646,-4.12745 58.64186,-8.10616 l -5.42093,-26.26304 c -18.12034,3.74025 -36.66809,6.30385 -55.12706,7.61983 z M 713.96295,109.01432 c -17.5872,-8.82448 -35.93021,-16.564957 -54.52099,-23.005379 l -8.77865,25.338929 c 17.48249,6.05695 34.73396,13.33632 51.27367,21.63517 z m -62.97508,803.48069 8.83292,25.32024 c 18.51783,-6.46007 36.84765,-14.23051 54.48073,-23.09614 l -12.04658,-23.95839 c -16.59581,8.34372 -33.84444,15.65679 -51.26707,21.73429 z m 199.1566,-639.74524 c 54.72461,0 99.0877,-44.36305 99.0877,-99.08767 0,-54.72463 -44.36308,-99.087627 -99.0877,-99.087627 -54.72464,0 -99.08768,44.363057 -99.08768,99.087617 0,54.72457 44.36304,99.08768 99.08768,99.08768 z"
     id="path4"
     style="stroke-width:1.758;fill:#010080;fill-opacity:1" />
</svg>
