<?xml version="1.0" encoding="UTF-8" standalone="no"?>
<svg
   xmlns:dc="http://purl.org/dc/elements/1.1/"
   xmlns:cc="http://creativecommons.org/ns#"
   xmlns:rdf="http://www.w3.org/1999/02/22-rdf-syntax-ns#"
   xmlns:svg="http://www.w3.org/2000/svg"
   xmlns="http://www.w3.org/2000/svg"
   xmlns:sodipodi="http://sodipodi.sourceforge.net/DTD/sodipodi-0.dtd"
   xmlns:inkscape="http://www.inkscape.org/namespaces/inkscape"
   version="1.1"
   width="1024"
   height="1024"
   id="svg4"
   sodipodi:docname="org-mode.svg"
   inkscape:version="1.0.2 (e86c870879, 2021-01-15, custom)">
  <metadata
     id="metadata10">
    <rdf:RDF>
      <cc:Work
         rdf:about="">
        <dc:format>image/svg+xml</dc:format>
        <dc:type
           rdf:resource="http://purl.org/dc/dcmitype/StillImage" />
        <dc:title />
      </cc:Work>
    </rdf:RDF>
  </metadata>
  <defs
     id="defs8" />
  <sodipodi:namedview
     pagecolor="#ffffff"
     bordercolor="#666666"
     borderopacity="1"
     objecttolerance="10"
     gridtolerance="10"
     guidetolerance="10"
     inkscape:pageopacity="0"
     inkscape:pageshadow="2"
     inkscape:window-width="1920"
     inkscape:window-height="1080"
     id="namedview6"
     showgrid="false"
     inkscape:zoom="0.24686589"
     inkscape:cx="-891.35394"
     inkscape:cy="324.58968"
     inkscape:window-x="1920"
     inkscape:window-y="0"
     inkscape:window-maximized="1"
     inkscape:current-layer="svg4"
     inkscape:document-rotation="0" />
  <path
     d="m 906.0662,395.11848 c -1.17846,-18.10797 -16.33739,-25.09824 -34.45111,-12.21569 -41.49885,-7.45591 -82.23314,-3.94926 -102.32439,-5.63935 -44.04545,-6.1682 -80.7155,-29.4786 -80.7155,-29.4786 5.35766,-7.12245 2.7938,-22.51709 -31.60559,-23.57482 -9.46214,-3.11574 -19.1772,-7.62834 -28.35766,-11.3764 3.12725,-6.58211 -0.76458,-16.30292 -0.76458,-16.30292 13.99774,-3.86304 16.14196,-22.08596 10.62336,-32.81852 17.85505,0.48287 15.01523,-27.12171 12.54909,-36.68157 13.99776,-5.30592 15.92921,-22.02272 10.13474,-35.23292 16.88927,-3.85729 17.37213,-23.64958 15.92921,-37.64158 17.37218,-0.96574 14.9635,-31.36989 14.9635,-37.64731 14.96925,-9.65184 11.58907,-22.68382 13.94025,-37.785288 9.22647,-18.682819 -3.31693,-23.988739 -12.16393,-4.081478 -9.49088,17.251428 -21.6663,24.782043 -21.55707,37.526596 4.34013,7.23744 -32.3357,17.85503 -20.75231,40.53884 -8.20895,10.13472 -27.5069,23.16671 -20.64889,38.70505 -3.48365,7.6226 -28.09891,25.48337 -17.48134,42.37264 -23.16093,15.44639 -21.78131,19.17144 -16.88929,33.30141 -6.5936,4.23095 -13.32515,10.70381 -17.21698,17.78605 -7.58234,-9.01374 -14.96345,-25.46038 -14.85424,-47.67855 0,-18.82653 -35.06046,1.82805 -35.06046,38.99823 0,3.19621 -0.32769,6.09922 -0.77608,8.86428 -12.12948,1.3969 -27.31139,4.06424 -46.44836,8.58835 -0.60938,0.41966 -0.90252,1.06923 -1.04625,1.81655 -0.75303,-2.78805 -1.32794,-5.75431 -1.59235,-8.92751 -3.34566,-21.78705 -28.36338,-54.95624 -40.56759,-13.99201 -6.30042,15.0095 -10.0025,25.24765 -12.15821,33.27843 v 0 c 0,0 -1.93152,1.29918 -5.50137,3.50661 -15.05547,9.32419 -20.47639,38.43488 -75.16245,56.81302 -18.45859,6.20269 -42.53934,11.18096 -74.49557,13.7678 -55.01364,4.4436 -160.31576,99.53051 -167.36924,190.26006 -1.62685,22.78724 1.78205,78.96793 20.67182,128.25036 0.0114,0.0345 0.0172,0.0805 0.0287,0.11497 0.0862,0.2414 0.18395,0.46562 0.27593,0.70128 0.29892,0.77034 0.5921,1.53486 0.89677,2.28798 1.6096,4.12743 3.32842,8.07673 5.14496,11.85349 10.83604,23.15519 25.63858,43.63155 45.60908,56.8073 10.14046,7.91 19.21169,12.98023 25.13271,15.87751 33.95674,56.04272 106.01496,127.917 241.87068,85.41789 208.41407,-59.1182 323.43127,79.38185 336.68165,89.10266 19.53935,19.73484 -50.50686,-171.50827 -198.82551,-257.46648 -87.68274,-47.8395 -32.64031,-130.23937 -26.35709,-159.3386 0,0 70.2876,49.19041 121.21985,-25.98348 46.01148,11.85355 76.841,-8.40434 116.41411,5.92104 24.0462,10.5371 125.14612,4.17347 87.57353,-52.33486 23.62661,-15.4234 26.1215,-10.43366 37.94053,-33.91654 6.34641,-28.46693 -8.06526,-34.56037 -12.4571,-42.34392 z"
     id="path2"
     style="stroke-width:1.75781;fill:#c6e779;fill-opacity:1" />
</svg>
