<?xml version="1.0" encoding="UTF-8" standalone="no"?>
<svg
   xmlns:dc="http://purl.org/dc/elements/1.1/"
   xmlns:cc="http://creativecommons.org/ns#"
   xmlns:rdf="http://www.w3.org/1999/02/22-rdf-syntax-ns#"
   xmlns:svg="http://www.w3.org/2000/svg"
   xmlns="http://www.w3.org/2000/svg"
   xmlns:sodipodi="http://sodipodi.sourceforge.net/DTD/sodipodi-0.dtd"
   xmlns:inkscape="http://www.inkscape.org/namespaces/inkscape"
   version="1.1"
   viewBox="0 0 24 24"
   id="svg4"
   sodipodi:docname="perl.svg"
   inkscape:version="1.0.2 (e86c870879, 2021-01-15, custom)">
  <metadata
     id="metadata10">
    <rdf:RDF>
      <cc:Work
         rdf:about="">
        <dc:format>image/svg+xml</dc:format>
        <dc:type
           rdf:resource="http://purl.org/dc/dcmitype/StillImage" />
      </cc:Work>
    </rdf:RDF>
  </metadata>
  <defs
     id="defs8" />
  <sodipodi:namedview
     pagecolor="#ffffff"
     bordercolor="#666666"
     borderopacity="1"
     objecttolerance="10"
     gridtolerance="10"
     guidetolerance="10"
     inkscape:pageopacity="0"
     inkscape:pageshadow="2"
     inkscape:window-width="1920"
     inkscape:window-height="1080"
     id="namedview6"
     showgrid="false"
     inkscape:zoom="29.791667"
     inkscape:cx="12"
     inkscape:cy="12"
     inkscape:window-x="0"
     inkscape:window-y="0"
     inkscape:window-maximized="1"
     inkscape:current-layer="svg4" />
  <path
     d="m 12.575,14.3 c -1.15,0 -3.45,1.15 -3.45,2.3 0,2.3 3.45,2.3 3.45,2.3 v -1.15 a 1.15,1.15 0 0 1 -1.15,-1.15 1.15,1.15 0 0 1 1.15,-1.15 V 14.3 m 0,5.75 c 0,0 -4.6,-0.575 -4.6,-2.875 0,-3.45 3.45,-4.3125 4.6,-4.3125 V 11.425 c -1.15,0 -5.75,1.725 -5.75,5.175 0,4.6 5.75,4.6 5.75,4.6 V 20.05 M 10.3555,6.2845 11.724,6.894 C 12.2185,4.088 13.541,2.225 13.541,2.225 13.0465,3.4095 12.7245,4.387 12.5175,5.1575 13.909,2.2825 16.7265,0.5 16.7265,0.5 c -1.357,1.357 -2.3575,2.829 -3.036,4.0595 1.817,-1.932 4.3355,-3.197 4.3355,-3.197 -3.0935,1.978 -4.485,5.1175 -4.83,5.9915 l 0.6325,0.092 c 0,0.598 0,1.15 0.2875,1.587 0.874,2.1735 5.359,2.3575 5.359,7.567 0,5.2095 -4.6345,6.9 -7.0955,6.9 -2.461,0 -7.8545,-1.1155 -7.8545,-6.9 0,-5.7845 5.6925,-5.8305 6.7045,-8.142 0.138,-0.437 -0.874,-2.1735 -0.874,-2.1735 z"
     fill="#9575cd"
     id="path2"
     style="stroke-width:1.15" />
</svg>
