<?xml version="1.0" encoding="UTF-8" standalone="no"?>
<svg
   xmlns:dc="http://purl.org/dc/elements/1.1/"
   xmlns:cc="http://creativecommons.org/ns#"
   xmlns:rdf="http://www.w3.org/1999/02/22-rdf-syntax-ns#"
   xmlns:svg="http://www.w3.org/2000/svg"
   xmlns="http://www.w3.org/2000/svg"
   xmlns:sodipodi="http://sodipodi.sourceforge.net/DTD/sodipodi-0.dtd"
   xmlns:inkscape="http://www.inkscape.org/namespaces/inkscape"
   version="1.1"
   width="1024"
   height="1024"
   id="svg4"
   sodipodi:docname="php.svg"
   inkscape:version="1.0.2 (e86c870879, 2021-01-15, custom)">
  <metadata
     id="metadata10">
    <rdf:RDF>
      <cc:Work
         rdf:about="">
        <dc:format>image/svg+xml</dc:format>
        <dc:type
           rdf:resource="http://purl.org/dc/dcmitype/StillImage" />
        <dc:title />
      </cc:Work>
    </rdf:RDF>
  </metadata>
  <defs
     id="defs8" />
  <sodipodi:namedview
     pagecolor="#ffffff"
     bordercolor="#666666"
     borderopacity="1"
     objecttolerance="10"
     gridtolerance="10"
     guidetolerance="10"
     inkscape:pageopacity="0"
     inkscape:pageshadow="2"
     inkscape:window-width="1920"
     inkscape:window-height="1080"
     id="namedview6"
     showgrid="false"
     inkscape:zoom="0.49373179"
     inkscape:cx="-36.434977"
     inkscape:cy="490.94057"
     inkscape:window-x="1920"
     inkscape:window-y="0"
     inkscape:window-maximized="1"
     inkscape:current-layer="svg4"
     inkscape:document-rotation="0" />
  <path
     d="m 353.02781,686.0572 c -4.45312,-29.05665 -16.69922,-52.65823 -46.42385,-64.07123 -11.63379,-4.45312 -21.709,-12.58008 -33.17579,-17.70118 -13.0254,-5.84473 -26.27346,-11.41113 -40.02249,-15.02929 -10.40918,-2.78321 -20.09474,1.89258 -26.27345,11.02148 -5.84473,8.57228 -1.61425,16.64356 3.28418,23.82423 5.51075,8.0713 11.63379,15.75294 17.81251,23.32326 10.24219,12.58008 21.09669,24.65919 31.06057,37.40812 9.51855,12.19044 17.64551,25.71682 16.25391,41.8594 -3.06153,35.40236 -19.09279,64.73919 -44.92092,88.61723 -2.83887,2.56055 -7.84864,4.39747 -11.52247,4.06348 -16.47657,-1.78125 -31.45021,-8.01563 -43.52932,-19.53809 -13.86036,-13.1924 -11.74512,-28.72268 4.84278,-38.35257 3.95214,-2.28223 8.07129,-4.39746 11.68945,-7.18067 10.13088,-7.62598 13.52638,-20.65137 8.01564,-31.95118 -2.61622,-5.45508 -5.56641,-11.35548 -9.90822,-15.30762 C 169.00233,687.72712 148.1821,667.79753 125.47116,650.20952 70.417515,607.45765 42.142011,550.90479 37.798357,482.4361 32.899917,406.3971 50.545433,335.42539 90.67924,270.46353 c 15.1963,-24.65919 32.89748,-48.15129 60.06156,-60.33987 18.48047,-8.29396 38.7422,-12.96974 58.50481,-18.1465 54.38567,-14.30567 109.26861,-25.04884 165.88085,-15.47462 48.76174,8.18263 84.44428,33.28713 100.80952,81.21391 10.74317,31.33889 13.30372,63.73539 9.96387,96.91304 -6.56835,65.18451 -54.7178,123.46482 -117.50875,140.72068 -27.21974,7.45899 -42.08205,3.28418 -58.4473,-19.3711 -11.74512,-16.30958 -21.48634,-34.06643 -32.00685,-51.26848 -1.55859,-2.56056 -2.67187,-5.51075 -4.00781,-8.23829 -1.28028,-2.72754 -2.67188,-5.34376 -4.00781,-8.07129 3.95214,28.27735 10.52051,55.49895 25.93946,79.76663 8.34962,13.1924 19.48243,22.93361 35.79201,24.38088 60.00589,5.39942 110.66207,-14.30567 146.62107,-62.56829 40.24514,-53.99603 49.09758,-116.11715 37.46193,-181.52246 -2.28223,-12.91407 -6.12304,-25.54982 -8.85059,-38.40822 -1.83691,-8.29396 1.44727,-14.417 9.6299,-17.31154 3.78515,-1.28027 7.68163,-2.33789 11.46679,-3.11719 49.09759,-10.57617 98.74996,-14.08301 148.79198,-9.01758 56.77922,5.67774 110.49507,21.26368 158.53318,52.82708 75.20404,49.48538 121.79489,119.9023 147.12206,205.07023 3.6738,12.35742 4.2305,25.88379 4.5644,38.91105 0.2227,8.6836 -5.3437,10.96583 -11.9677,5.51075 -7.29203,-5.95606 -13.97172,-12.74708 -20.26177,-19.76076 -5.84472,-6.62403 -10.52051,-14.19435 -16.19825,-21.15236 -4.39745,-5.45508 -8.23828,-4.62011 -10.35352,2.1709 -1.33593,4.11915 -2.50487,8.18263 -3.67383,12.30177 -13.13672,46.86916 -33.84376,89.61918 -67.40921,125.63571 -4.67578,5.06543 -8.85059,12.58008 -9.40723,19.25977 -1.44727,18.48048 -2.50488,37.3506 -0.72363,55.77542 3.67383,39.57903 9.40723,78.98735 13.86036,118.51071 2.50488,22.3213 -4.67579,35.45802 -25.66115,43.19718 -14.75099,5.39942 -30.55959,9.35157 -46.14553,10.46485 -24.82618,1.72559 -49.87502,0.50098 -74.81254,0.50098 -0.66797,-27.83204 1.72559,-55.16497 -24.43654,-70.08294 5.06544,-20.65138 10.91016,-40.24514 14.417,-60.28422 2.89454,-16.64356 0.44532,-33.0088 -11.24414,-46.6465 -10.96582,-12.85841 -24.71486,-16.36525 -37.29679,-9.01759 -37.90725,22.09865 -77.31929,22.20998 -117.4531,7.73732 -18.42481,-6.67969 -31.28321,-2.89453 -41.4716,13.91602 -10.96582,18.09083 -15.58594,38.40822 -14.36133,58.95012 1.55859,25.88381 6.06738,51.48929 9.51856,77.26176 1.89257,14.417 0.27831,18.1465 -14.02736,21.82033 -31.78419,8.07129 -64.12503,8.96192 -96.63471,6.3457 -1.72558,-0.16699 -3.45118,-0.89062 -4.56446,-1.16894 -1.61426,-26.99709 1.22461,-55.05364 -30.94924,-69.41498 14.25001,-30.2256 12.30178,-61.56449 7.40333,-92.90336 l -0.11133,-0.27833 z M 160.87352,580.12843 c 4.73144,-4.45312 8.5166,-11.41113 9.85254,-17.81251 3.33984,-16.03125 -8.6836,-37.51759 -22.59962,-43.47364 -7.40332,-3.22853 -13.86036,-2.05958 -19.09278,3.84082 -12.74708,14.41699 -25.32716,29.00098 -37.85344,43.6425 -2.11524,2.50489 -4.00782,5.45508 -5.51075,8.40527 -5.00976,9.62989 -2.05957,16.64357 8.62794,19.25978 6.45704,1.61426 13.13673,1.94824 19.76075,2.89453 17.25587,-1.66992 33.95509,-4.56446 46.8135,-16.69923 v -0.0556 z m 1.44726,-160.25877 c -0.0556,-11.4668 -9.62989,-21.04102 -20.92969,-21.09669 -11.6338,-0.0556 -21.65333,10.35352 -21.26368,21.82033 0.50097,11.52246 10.07519,20.7627 21.542,20.54004 11.57812,-0.16699 20.81836,-9.62988 20.70704,-21.20801 z"
     id="path2"
     style="stroke-width:1.85547;fill:#8993be;fill-opacity:1" />
</svg>
