<?xml version="1.0" encoding="UTF-8" standalone="no"?>
<svg
   xmlns:dc="http://purl.org/dc/elements/1.1/"
   xmlns:cc="http://creativecommons.org/ns#"
   xmlns:rdf="http://www.w3.org/1999/02/22-rdf-syntax-ns#"
   xmlns:svg="http://www.w3.org/2000/svg"
   xmlns="http://www.w3.org/2000/svg"
   xmlns:sodipodi="http://sodipodi.sourceforge.net/DTD/sodipodi-0.dtd"
   xmlns:inkscape="http://www.inkscape.org/namespaces/inkscape"
   version="1.1"
   viewBox="-10 0 1024 1024"
   id="svg4"
   sodipodi:docname="ruby.svg"
   width="1024"
   height="1024"
   inkscape:version="1.0.2 (e86c870879, 2021-01-15, custom)">
  <metadata
     id="metadata10">
    <rdf:RDF>
      <cc:Work
         rdf:about="">
        <dc:format>image/svg+xml</dc:format>
        <dc:type
           rdf:resource="http://purl.org/dc/dcmitype/StillImage" />
        <dc:title />
      </cc:Work>
    </rdf:RDF>
  </metadata>
  <defs
     id="defs8" />
  <sodipodi:namedview
     pagecolor="#ffffff"
     bordercolor="#666666"
     borderopacity="1"
     objecttolerance="10"
     gridtolerance="10"
     guidetolerance="10"
     inkscape:pageopacity="0"
     inkscape:pageshadow="2"
     inkscape:window-width="1920"
     inkscape:window-height="1080"
     id="namedview6"
     showgrid="false"
     inkscape:zoom="0.715"
     inkscape:cx="449"
     inkscape:cy="500"
     inkscape:window-x="1920"
     inkscape:window-y="0"
     inkscape:window-maximized="1"
     inkscape:current-layer="svg4"
     inkscape:document-rotation="0" />
  <path
     fill="currentColor"
     d="m 299.03872,854.36902 q 73.8041,10.25057 148.12073,20.50114 74.31663,10.25057 148.12073,20.50114 73.8041,10.25057 148.12073,20.50114 74.31663,10.25056 149.14579,20.50113 -24.60137,-43.05239 -50.22779,-85.07972 -25.62643,-42.02734 -50.74032,-83.02962 -25.1139,-41.00227 -50.22779,-83.02961 -25.1139,-42.02733 -49.71526,-83.02961 -49.20274,30.75171 -97.89294,62.52847 -48.69021,31.77677 -97.89294,62.52848 -49.20274,30.75171 -98.40547,63.55353 -49.20273,32.80182 -98.40547,63.55353 z M 948.92483,229.08428 q -13.32574,20.50114 -26.13895,39.97722 -12.81321,19.47608 -26.13896,39.97722 -22.55125,32.80182 -45.61503,66.6287 -23.06378,33.82688 -45.10251,67.65376 -22.03872,33.82688 -44.58997,67.65376 -22.55126,33.82688 -46.12756,68.67882 -2.05012,4.10022 -4.10023,7.1754 -2.05012,3.07517 1.02505,9.22551 21.5262,36.90205 43.56492,72.77904 l 44.07745,71.75399 q 0,0 43.56492,71.75398 43.56492,71.75399 43.0524,72.77905 6.15034,10.25057 13.83826,22.55125 7.68793,12.30068 15.88839,22.55125 4.10022,-88.15489 8.71298,-176.30979 4.61276,-88.1549 9.22551,-174.25968 4.61276,-86.10479 8.71299,-174.25968 4.10023,-88.1549 9.22551,-176.3098 h -1.53759 z M 155.53075,528.40091 q 2.05012,2.05011 6.15034,3.07517 4.10023,1.02506 6.15035,-1.02506 l 84.05466,-41.00227 q 0,0 83.02962,-43.0524 13.32574,-6.15034 24.08884,-18.45102 10.76309,-12.30069 22.03872,-22.55125 l 75.85421,-69.70388 75.85422,-69.70387 q 2.05011,-2.05011 4.61275,-4.10023 2.56265,-2.05011 4.61276,-6.15034 13.32574,-24.60137 26.65148,-52.2779 13.32574,-27.67654 27.67654,-54.32802 -16.40091,-6.15034 -32.28929,-12.30069 -15.88839,-6.15034 -32.2893,-12.30068 -2.05011,0 -4.61275,1.02506 -2.56265,1.02506 -4.61276,1.02506 -36.90205,22.55125 -74.31663,42.02733 -37.41458,19.47608 -73.29157,42.02734 -17.42597,12.30068 -32.80182,26.65148 -15.37586,14.35079 -30.75171,30.7517 -24.60137,22.55126 -50.74032,45.10251 -26.13895,22.55125 -50.74032,47.15262 -6.15034,6.15034 -12.30068,13.32574 -6.15035,7.1754 -10.25057,15.37585 -17.42597,24.60137 -34.33941,49.20274 -16.91344,24.60136 -34.33941,51.25285 9.22551,10.25056 17.9385,19.47608 8.71298,9.22551 18.96355,19.47608 z M 358.49203,483.2984 q -10.25057,43.0524 -20.50114,87.12984 l -20.50114,88.1549 q 0,0 -21.01367,88.1549 -21.01367,88.1549 -21.01367,89.17995 50.2278,-30.7517 99.94306,-63.55353 49.71526,-32.80182 98.91799,-64.57859 49.20274,-31.77676 97.38041,-62.52847 48.17768,-30.75171 97.38041,-63.55353 -38.95216,-12.30068 -77.3918,-24.60137 l -76.87927,-24.60136 q 0,0 -77.3918,-24.60137 -77.3918,-24.60137 -78.92938,-24.60137 z M 914.07289,231.13439 q -42.02733,6.15035 -84.05467,13.32574 -42.02733,7.1754 -83.54214,14.3508 l -83.02961,14.3508 q 0,0 -83.54214,13.32574 27.67654,67.65376 56.37813,137.35763 28.70159,69.70387 57.40319,137.35763 l 55.35307,-82.00455 q 0,0 54.84055,-83.02962 54.84055,-83.02961 54.84055,-83.02961 z M 363.61731,458.69704 q 75.85422,24.60136 151.1959,49.20273 75.34169,24.60137 152.22096,49.20273 -27.67654,-69.70387 -55.86561,-137.35763 -28.18906,-67.65376 -55.8656,-137.35763 -48.17768,45.10251 -95.84282,88.1549 -47.66515,43.05239 -95.84283,88.1549 z M 159.63098,596.05467 106.32802,723.16173 q 0,0 -52.277906,127.10706 51.252846,-2.05011 100.968106,-3.07517 49.71527,-1.02506 100.96811,-3.07517 -23.57631,-63.55353 -47.66515,-124.03189 -24.08883,-60.47836 -48.6902,-124.03189 z m 98.40547,190.66059 q 1.02505,-2.05011 1.53758,-2.05011 h 1.53759 q 18.45102,-75.85422 36.38952,-151.70843 17.9385,-75.85422 37.41458,-153.75854 -42.02734,20.50113 -82.00456,41.00227 -39.97722,20.50114 -80.9795,43.0524 21.5262,53.30296 43.05239,109.68109 21.5262,56.37813 43.0524,113.78132 z M 873.07062,212.68337 q -23.57631,-6.15034 -47.66515,-12.30068 -24.08884,-6.15035 -48.69021,-12.30069 -33.82688,-8.20045 -69.19134,-18.45102 -35.36447,-10.25057 -70.2164,-18.45103 h -7.68793 q 0,0 -5.63781,4.10023 -13.32574,24.60137 -25.62643,50.22779 -12.30068,25.62642 -24.60136,50.22779 -1.02506,2.05011 -1.02506,3.07517 v 3.07517 q 74.82916,-12.30068 150.17084,-23.57631 75.34169,-11.27562 150.17085,-23.57631 v 0 z M 686.51025,136.82915 q 64.57859,18.45103 130.18223,36.90205 65.60365,18.45103 133.25741,36.90206 -11.27563,-32.80183 -22.03873,-63.55354 -10.7631,-30.7517 -21.01367,-61.503412 -56.37813,12.300683 -110.70615,24.601362 -54.32801,12.30069 -109.68109,24.60137 v 1.02506 z M 280.5877,874.87016 q -24.60137,-2.05012 -49.71526,-1.02506 -25.1139,1.02506 -48.69021,1.02506 -21.52619,0 -41.5148,1.02505 -19.98861,1.02506 -40.48975,1.02506 -2.050117,0 -4.100231,1.02506 -2.050114,1.02506 -4.100228,3.07517 84.054669,6.15034 168.109339,14.3508 84.05467,8.20045 168.62187,16.40091 84.5672,8.20045 168.62187,15.37585 84.05467,7.1754 168.10934,15.37586 l 0.51252,-1.02506 0.51253,-1.02506 Q 712.13667,932.27335 658.32118,925.09795 604.50569,917.92255 550.17768,909.72209 483.54897,901.52164 415.89522,891.27107 348.24146,881.0205 280.5877,874.87016 Z M 58.150342,772.36446 q 21.526196,-49.20273 43.052388,-99.43052 21.5262,-50.22779 44.07745,-101.48064 2.05012,-4.10023 1.02506,-8.20045 -1.02506,-4.10023 -4.10023,-8.20046 -9.22551,-10.25057 -18.45102,-19.47608 L 104.2779,516.10023 Q 90.952164,583.75398 78.138952,648.33257 65.32574,712.91116 52,778.5148 h 2.050114 v 0 q 1.025057,0 2.562642,-2.05011 1.537586,-2.05011 1.537586,-4.10023 z M 628.082,118.37813 q 36.90205,-8.20046 74.31663,-16.40091 37.41458,-8.200457 74.31663,-16.400912 2.05012,0 4.61276,-1.025057 2.56264,-1.025057 4.61275,-1.025057 v -2.050114 0 q -52.2779,6.150342 -105.06833,13.32574 -52.79044,7.1754 -108.14351,15.37585 15.37585,6.15035 28.70159,9.22552 13.32574,3.07517 26.65148,-1.02506 z"
     id="path2"
     style="stroke-width:1.02506;fill:#ec1622;fill-opacity:1" />
</svg>
