<?xml version="1.0" encoding="UTF-8" standalone="no"?>
<svg
   xmlns:dc="http://purl.org/dc/elements/1.1/"
   xmlns:cc="http://creativecommons.org/ns#"
   xmlns:rdf="http://www.w3.org/1999/02/22-rdf-syntax-ns#"
   xmlns:svg="http://www.w3.org/2000/svg"
   xmlns="http://www.w3.org/2000/svg"
   xmlns:sodipodi="http://sodipodi.sourceforge.net/DTD/sodipodi-0.dtd"
   xmlns:inkscape="http://www.inkscape.org/namespaces/inkscape"
   width="1024"
   height="1024"
   version="1.0"
   viewBox="0 0 1024 1024"
   id="svg10"
   sodipodi:docname="scala.svg"
   inkscape:version="1.0.2 (e86c870879, 2021-01-15, custom)">
  <metadata
     id="metadata16">
    <rdf:RDF>
      <cc:Work
         rdf:about="">
        <dc:format>image/svg+xml</dc:format>
        <dc:type
           rdf:resource="http://purl.org/dc/dcmitype/StillImage" />
        <dc:title />
      </cc:Work>
    </rdf:RDF>
  </metadata>
  <defs
     id="defs14" />
  <sodipodi:namedview
     pagecolor="#ffffff"
     bordercolor="#666666"
     borderopacity="1"
     objecttolerance="10"
     gridtolerance="10"
     guidetolerance="10"
     inkscape:pageopacity="0"
     inkscape:pageshadow="2"
     inkscape:window-width="1920"
     inkscape:window-height="1080"
     id="namedview12"
     showgrid="false"
     inkscape:zoom="0.69824219"
     inkscape:cx="248.02278"
     inkscape:cy="529.2509"
     inkscape:window-x="1920"
     inkscape:window-y="0"
     inkscape:window-maximized="1"
     inkscape:current-layer="svg10"
     inkscape:document-rotation="0" />
  <g
     transform="matrix(0.51865017,0,0,0.51865017,151.53813,-3.6218254)"
     fill="#390d09"
     id="g8"
     style="fill:#f11205;fill-opacity:1">
    <path
       d="m 110,1682 v -229 l 175,-7 c 182,-7 317,-22 515,-56 225,-39 447,-109 470,-149 6,-10 10,67 10,216 v 232 l -26,20 c -28,22 -136,59 -259,90 -192,48 -661,111 -821,111 h -64 z"
       id="path2"
       style="fill:#f11205;fill-opacity:1" />
    <path
       d="M 110,1102 V 873 l 175,-6 c 194,-8 345,-25 545,-62 224,-42 428,-110 443,-147 3,-7 6,90 6,216 1,200 -1,232 -16,248 -35,39 -305,109 -583,152 -169,26 -449,56 -527,56 h -43 z"
       id="path4"
       style="fill:#f11205;fill-opacity:1" />
    <path
       d="M 110,526 V 302 l 31,-6 c 17,-3 59,-6 93,-6 168,0 567,-55 763,-105 137,-36 232,-72 265,-102 17,-15 18,-6 18,214 0,215 -1,231 -19,247 -27,25 -212,82 -356,111 -233,46 -620,95 -752,95 h -43 z"
       id="path6"
       style="fill:#f11205;fill-opacity:1" />
  </g>
</svg>
