<?xml version="1.0" encoding="UTF-8" standalone="no"?>
<svg
   xmlns:dc="http://purl.org/dc/elements/1.1/"
   xmlns:cc="http://creativecommons.org/ns#"
   xmlns:rdf="http://www.w3.org/1999/02/22-rdf-syntax-ns#"
   xmlns:svg="http://www.w3.org/2000/svg"
   xmlns="http://www.w3.org/2000/svg"
   xmlns:sodipodi="http://sodipodi.sourceforge.net/DTD/sodipodi-0.dtd"
   xmlns:inkscape="http://www.inkscape.org/namespaces/inkscape"
   version="1.1"
   viewBox="0 0 1024 1024"
   id="svg4"
   sodipodi:docname="settings_file.svg"
   width="1024"
   height="1024"
   inkscape:version="1.0.2 (e86c870879, 2021-01-15, custom)">
  <metadata
     id="metadata10">
    <rdf:RDF>
      <cc:Work
         rdf:about="">
        <dc:format>image/svg+xml</dc:format>
        <dc:type
           rdf:resource="http://purl.org/dc/dcmitype/StillImage" />
        <dc:title />
      </cc:Work>
    </rdf:RDF>
  </metadata>
  <defs
     id="defs8" />
  <sodipodi:namedview
     pagecolor="#ffffff"
     bordercolor="#666666"
     borderopacity="1"
     objecttolerance="10"
     gridtolerance="10"
     guidetolerance="10"
     inkscape:pageopacity="0"
     inkscape:pageshadow="2"
     inkscape:window-width="1920"
     inkscape:window-height="1080"
     id="namedview6"
     showgrid="false"
     inkscape:zoom="0.65830905"
     inkscape:cx="185.82394"
     inkscape:cy="585.40314"
     inkscape:window-x="1920"
     inkscape:window-y="0"
     inkscape:window-maximized="1"
     inkscape:current-layer="svg4"
     inkscape:document-rotation="0" />
  <path
     id="path2"
     style="stroke-width:22.5;fill:#42a5f5;fill-opacity:1"
     d="M 190.57227 62 C 147.71498 62 126.28516 83.429823 126.28516 126.28711 L 126.28516 897.71484 C 126.28516 940.57211 147.71498 962 190.57227 962 L 833.42773 962 C 876.28502 962 897.71484 940.57211 897.71484 897.71484 L 897.71484 287 L 672.71484 62 L 190.57227 62 z M 190.57227 126.28516 L 640.57227 126.28516 L 833.42773 319.14258 L 833.42773 897.71289 L 190.57227 897.71289 L 190.57227 126.28516 z M 466.91016 350 C 461.28516 350 456.56016 354.04922 455.66016 359.44922 L 447.33398 419.07422 C 433.15898 424.69922 421.01055 432.35 409.31055 441.125 L 353.28516 418.625 C 348.33516 416.6 342.26055 418.62422 339.56055 423.57422 L 294.56055 501.42578 C 291.63555 506.37578 292.98477 512.44922 297.25977 515.82422 L 344.73438 552.5 C 343.83438 560.15 343.16016 567.575 343.16016 575 C 343.16016 582.425 343.83438 589.62422 344.73438 596.82422 L 297.25977 634.17578 C 292.98477 637.55078 291.63555 643.62422 294.56055 648.57422 L 339.56055 726.42578 C 342.26055 731.37578 348.33516 733.175 353.28516 731.375 L 409.31055 708.65039 C 421.01055 717.65039 433.15898 725.30078 447.33398 730.92578 L 455.66016 790.55078 C 456.56016 795.95078 461.28516 800 466.91016 800 L 556.91016 800 C 562.53516 800 567.26016 795.95078 568.16016 790.55078 L 576.48438 730.92578 C 590.65937 725.07578 602.80977 717.65039 614.50977 708.65039 L 670.53516 731.375 C 675.48516 733.175 681.55977 731.37578 684.25977 726.42578 L 729.25977 648.57422 C 731.95977 643.62422 730.83555 637.55078 726.56055 634.17578 L 679.08398 596.82422 C 679.98398 589.62422 680.66016 582.425 680.66016 575 C 680.66016 567.575 679.98398 560.15 679.08398 552.5 L 726.56055 515.82422 C 730.83555 512.44922 731.95977 506.37578 729.25977 501.42578 L 684.25977 423.57422 C 681.55977 418.62422 675.48516 416.6 670.53516 418.625 L 614.50977 441.125 C 602.80977 432.35 590.65938 424.69922 576.48438 419.07422 L 568.16016 359.44922 C 567.26016 354.04922 562.53516 350 556.91016 350 L 466.91016 350 z M 511.91016 496.25 A 78.75 78.75 0 0 1 590.66016 575 A 78.75 78.75 0 0 1 511.91016 653.75 A 78.75 78.75 0 0 1 433.16016 575 A 78.75 78.75 0 0 1 511.91016 496.25 z " />
</svg>
