<?xml version="1.0" encoding="UTF-8" standalone="no"?>
<svg
   xmlns:dc="http://purl.org/dc/elements/1.1/"
   xmlns:cc="http://creativecommons.org/ns#"
   xmlns:rdf="http://www.w3.org/1999/02/22-rdf-syntax-ns#"
   xmlns:svg="http://www.w3.org/2000/svg"
   xmlns="http://www.w3.org/2000/svg"
   xmlns:sodipodi="http://sodipodi.sourceforge.net/DTD/sodipodi-0.dtd"
   xmlns:inkscape="http://www.inkscape.org/namespaces/inkscape"
   version="1.1"
   viewBox="-10 0 1024 1024"
   id="svg4"
   sodipodi:docname="table_file.svg"
   width="1024"
   height="1024"
   inkscape:version="1.0.2 (e86c870879, 2021-01-15, custom)">
  <metadata
     id="metadata10">
    <rdf:RDF>
      <cc:Work
         rdf:about="">
        <dc:format>image/svg+xml</dc:format>
        <dc:type
           rdf:resource="http://purl.org/dc/dcmitype/StillImage" />
        <dc:title />
      </cc:Work>
    </rdf:RDF>
  </metadata>
  <defs
     id="defs8" />
  <sodipodi:namedview
     pagecolor="#ffffff"
     bordercolor="#666666"
     borderopacity="1"
     objecttolerance="10"
     gridtolerance="10"
     guidetolerance="10"
     inkscape:pageopacity="0"
     inkscape:pageshadow="2"
     inkscape:window-width="1920"
     inkscape:window-height="1080"
     id="namedview6"
     showgrid="false"
     inkscape:zoom="0.715"
     inkscape:cx="474.5"
     inkscape:cy="500"
     inkscape:window-x="1920"
     inkscape:window-y="0"
     inkscape:window-maximized="1"
     inkscape:current-layer="svg4"
     inkscape:document-rotation="0" />
  <path
     fill="currentColor"
     d="m 398.53606,709.25511 v -51.82992 q 0,-3.87515 -2.42196,-6.29709 -2.42195,-2.42197 -6.2971,-2.42197 h -86.70613 q -3.39073,0 -6.0549,2.42197 -2.66415,2.42194 -2.66415,6.29709 v 51.82992 q 0,3.39075 2.66415,6.05489 2.66417,2.66416 6.0549,2.66416 H 389.817 q 3.87513,0 6.2971,-2.66416 2.42196,-2.66414 2.42196,-6.05489 z m 0,-104.14424 v -51.82994 q 0,-3.39072 -2.42196,-6.05488 -2.42195,-2.66416 -6.2971,-2.66416 h -86.70613 q -3.39073,0 -6.0549,2.66416 -2.66415,2.66416 -2.66415,6.05488 v 51.82994 q 0,3.87514 2.66415,6.29709 2.66417,2.42196 6.0549,2.42196 H 389.817 q 3.87513,0 6.2971,-2.42196 2.42196,-2.42195 2.42196,-6.29709 z m 138.05167,104.14424 v -51.82992 q 0,-8.71906 -8.23465,-8.71906 h -86.70616 q -3.39073,0 -6.05488,2.42197 -2.66416,2.42194 -2.66416,6.29709 v 51.82992 q 0,3.39075 2.66416,6.05489 2.66415,2.66416 6.05488,2.66416 h 86.70616 q 8.23465,0 8.23465,-8.71905 z M 398.53606,501.45103 v -51.82994 q 0,-3.39073 -2.42196,-6.05489 -2.42195,-2.66415 -6.2971,-2.66415 h -86.70613 q -3.39073,0 -6.0549,2.66415 -2.66415,2.66416 -2.66415,6.05489 v 51.82994 q 0,3.87513 2.66415,6.29709 2.66417,2.42196 6.0549,2.42196 H 389.817 q 3.87513,0 6.2971,-2.42196 2.42196,-2.42196 2.42196,-6.29709 z m 138.05167,103.65983 v -51.82994 q 0,-8.71904 -8.23465,-8.71904 h -86.70616 q -3.39073,0 -6.05488,2.66417 -2.66416,2.66416 -2.66416,6.05487 v 51.82994 q 0,3.87514 2.66416,6.29709 2.66415,2.42196 6.05488,2.42196 h 86.70616 q 8.23465,0 8.23465,-8.71905 z m 138.53605,104.14423 v -51.8299 q 0,-3.87515 -2.66414,-6.29709 -2.66416,-2.42197 -6.05491,-2.42197 H 580.183 q -3.39075,0 -6.05491,2.42197 -2.66414,2.42194 -2.66414,6.2971 v 51.82991 q 0,3.39075 2.66414,6.05491 2.66416,2.66414 6.05491,2.66414 h 86.22173 q 3.39075,0 6.05491,-2.66414 2.66414,-2.66416 2.66414,-6.05493 z M 536.58773,501.45103 v -51.82994 q 0,-8.71904 -8.23465,-8.71904 h -86.70616 q -3.39073,0 -6.05488,2.66415 -2.66416,2.66416 -2.66416,6.05489 v 51.82994 q 0,3.87513 2.66416,6.29709 2.66415,2.42196 6.05488,2.42196 h 86.70616 q 8.23465,0 8.23465,-8.71905 z m 138.53605,103.65983 v -51.82994 q 0,-3.39071 -2.66414,-6.05487 -2.66416,-2.66417 -6.05491,-2.66417 H 580.183 q -3.39075,0 -6.05491,2.66417 -2.66414,2.66416 -2.66414,6.05487 v 51.82994 q 0,3.87514 2.66414,6.29709 2.66416,2.42196 6.05491,2.42196 h 86.22173 q 3.39075,0 6.05491,-2.42196 2.66414,-2.42195 2.66414,-6.29709 z m 0,-103.65984 v -51.82994 q 0,-3.39073 -2.66414,-6.0549 -2.66416,-2.66414 -6.05491,-2.66414 H 580.183 q -3.39075,0 -6.05491,2.66414 -2.66414,2.66417 -2.66414,6.0549 v 51.82994 q 0,3.87513 2.66414,6.29709 2.66416,2.42196 6.05491,2.42196 h 86.22173 q 3.39075,0 6.05491,-2.42196 2.66414,-2.42196 2.66414,-6.29709 z M 710,415.22927 V 709.2551 q 0,17.92249 -12.83639,30.5167 -12.83638,12.59416 -30.75888,12.59416 H 303.11087 q -17.92249,0 -30.51669,-12.59416 Q 260,727.1776 260,709.25511 V 415.22927 q 0,-17.92249 12.59418,-30.75887 12.5942,-12.8364 30.51669,-12.8364 h 363.29386 q 17.9225,0 30.75888,12.8364 Q 710,397.30678 710,415.22927 Z"
     id="path2"
     style="stroke-width:0.484392;fill:#227144;fill-opacity:1" />
  <path
     fill="currentColor"
     d="m 663,62 225,225 v 611 q 0,64 -65,64 H 181 q -65,0 -65,-64 V 126 q 0,-64 65,-64 z M 823,898 V 319 L 631,126 H 181 v 772 z"
     id="path63"
     style="fill:#227144;fill-opacity:1" />
</svg>
