<?xml version="1.0" encoding="UTF-8" standalone="no"?>
<svg
   xmlns:dc="http://purl.org/dc/elements/1.1/"
   xmlns:cc="http://creativecommons.org/ns#"
   xmlns:rdf="http://www.w3.org/1999/02/22-rdf-syntax-ns#"
   xmlns:svg="http://www.w3.org/2000/svg"
   xmlns="http://www.w3.org/2000/svg"
   xmlns:sodipodi="http://sodipodi.sourceforge.net/DTD/sodipodi-0.dtd"
   xmlns:inkscape="http://www.inkscape.org/namespaces/inkscape"
   version="1.1"
   viewBox="-10 0 1024 1024"
   id="svg4"
   sodipodi:docname="todo.svg"
   width="1024"
   height="1024"
   inkscape:version="1.0.2 (e86c870879, 2021-01-15, custom)">
  <metadata
     id="metadata10">
    <rdf:RDF>
      <cc:Work
         rdf:about="">
        <dc:format>image/svg+xml</dc:format>
        <dc:type
           rdf:resource="http://purl.org/dc/dcmitype/StillImage" />
        <dc:title />
      </cc:Work>
    </rdf:RDF>
  </metadata>
  <defs
     id="defs8" />
  <sodipodi:namedview
     pagecolor="#ffffff"
     bordercolor="#666666"
     borderopacity="1"
     objecttolerance="10"
     gridtolerance="10"
     guidetolerance="10"
     inkscape:pageopacity="0"
     inkscape:pageshadow="2"
     inkscape:window-width="1920"
     inkscape:window-height="1080"
     id="namedview6"
     showgrid="false"
     inkscape:zoom="0.5"
     inkscape:cx="403"
     inkscape:cy="500"
     inkscape:window-x="1920"
     inkscape:window-y="0"
     inkscape:window-maximized="1"
     inkscape:current-layer="svg4"
     inkscape:document-rotation="0" />
  <path
     fill="currentColor"
     d="M 835.29876,62 H 168.70124 Q 155.6307,62 145.361,71.802905 135.09129,81.605809 135.09129,94.676349 V 929.32365 q 0,13.07054 10.26971,22.87345 Q 155.6307,962 168.70124,962 h 666.59752 q 13.07053,0 23.34024,-9.8029 10.26972,-9.80291 10.26972,-22.87345 V 94.676349 q 0,-13.07054 -10.26972,-22.873444 Q 848.36929,62 835.29876,62 Z M 804.48962,896.6473 H 201.37759 V 127.3527 H 804.48962 Z M 726.06639,298.20332 H 503.86722 q -13.07054,0 -22.87344,9.3361 -9.80291,9.3361 -9.80291,22.40664 0,14.93776 9.80291,23.80705 9.8029,8.8693 22.87344,8.8693 h 222.19917 q 13.07054,0 22.87345,-9.3361 9.8029,-9.3361 9.8029,-23.34025 0,-13.07054 -9.8029,-22.40664 -9.80291,-9.3361 -22.87345,-9.3361 z m 0,198.85892 H 503.86722 q -13.07054,0 -22.87344,9.3361 -9.80291,9.3361 -9.80291,23.80705 0,14.47096 9.80291,23.80706 9.8029,9.3361 22.87344,9.3361 h 222.19917 q 13.07054,0 22.87345,-9.3361 9.8029,-9.3361 9.8029,-23.80706 0,-14.47095 -9.8029,-23.80705 -9.80291,-9.3361 -22.87345,-9.3361 z M 255.52697,305.6722 q -23.34025,19.60581 -3.73445,45.74689 l 47.61412,56.9502 q 9.3361,11.20332 26.14108,10.26971 h 0.9336 q 16.80498,0 26.14108,-14.00415 L 438.51452,265.52697 Q 455.3195,235.65145 427.3112,220.71369 402.10373,203.90871 381.56431,230.9834 l -61.61826,100.82988 -18.6722,-22.40664 q -20.53942,-25.20747 -45.74688,-3.73444 z m 78.89005,175.51867 q -20.07262,0 -34.54357,14.47096 -14.47096,14.47095 -14.47096,34.54356 0,20.07262 14.47096,34.54357 14.47095,14.47096 34.54357,14.47096 20.07261,0 34.54356,-14.47096 14.47096,-14.47095 14.47096,-34.54357 0,-20.07261 -14.47096,-34.54356 -14.47095,-14.47096 -34.54356,-14.47096 z M 726.06639,694.05394 H 503.86722 q -13.07054,0 -22.87344,9.3361 -9.80291,9.3361 -9.80291,23.80706 0,14.47095 9.80291,23.80705 9.8029,9.3361 22.87344,9.3361 h 222.19917 q 13.07054,0 22.87345,-9.3361 9.8029,-9.3361 9.8029,-23.80705 0,-14.47096 -9.8029,-23.80706 -9.80291,-9.3361 -22.87345,-9.3361 z M 334.41701,678.18257 q -20.07261,0 -34.54357,14.47096 -14.47095,14.47095 -14.47095,34.54357 0,20.07261 14.47095,34.54356 14.47095,14.47096 34.54357,14.47096 20.07261,0 34.54356,-14.47096 14.47096,-14.47095 14.47096,-34.54356 0,-20.07262 -14.47096,-34.54357 -14.47094,-14.47096 -34.54356,-14.47096 z"
     id="path2"
     style="stroke-width:0.93361;fill:#93a1a1;fill-opacity:1" />
</svg>
