<?xml version="1.0" encoding="UTF-8" standalone="no"?>
<svg
   xmlns:dc="http://purl.org/dc/elements/1.1/"
   xmlns:cc="http://creativecommons.org/ns#"
   xmlns:rdf="http://www.w3.org/1999/02/22-rdf-syntax-ns#"
   xmlns:svg="http://www.w3.org/2000/svg"
   xmlns="http://www.w3.org/2000/svg"
   xmlns:sodipodi="http://sodipodi.sourceforge.net/DTD/sodipodi-0.dtd"
   xmlns:inkscape="http://www.inkscape.org/namespaces/inkscape"
   version="1.1"
   viewBox="-10 0 1024 1024"
   id="svg4"
   sodipodi:docname="todo2.svg"
   width="1024"
   height="1024"
   inkscape:version="1.0.2 (e86c870879, 2021-01-15, custom)">
  <metadata
     id="metadata10">
    <rdf:RDF>
      <cc:Work
         rdf:about="">
        <dc:format>image/svg+xml</dc:format>
        <dc:type
           rdf:resource="http://purl.org/dc/dcmitype/StillImage" />
        <dc:title />
      </cc:Work>
    </rdf:RDF>
  </metadata>
  <defs
     id="defs8" />
  <sodipodi:namedview
     pagecolor="#ffffff"
     bordercolor="#666666"
     borderopacity="1"
     objecttolerance="10"
     gridtolerance="10"
     guidetolerance="10"
     inkscape:pageopacity="0"
     inkscape:pageshadow="2"
     inkscape:window-width="1920"
     inkscape:window-height="1080"
     id="namedview6"
     showgrid="false"
     inkscape:zoom="0.715"
     inkscape:cx="426"
     inkscape:cy="500"
     inkscape:window-x="1920"
     inkscape:window-y="0"
     inkscape:window-maximized="1"
     inkscape:current-layer="svg4"
     inkscape:document-rotation="0" />
  <path
     fill="currentColor"
     d="M 863.29808,691.56731 V 421.13462 H 952 v 270.43269 q 0,37.86057 -25.42067,64.36298 -25.42068,26.5024 -63.28125,26.5024 H 322.43269 q -40.02404,0 -65.44471,-26.5024 -25.42067,-26.50241 -25.42067,-64.36298 V 150.70192 q 0,-37.86057 25.42067,-63.281247 Q 282.40865,62 322.43269,62 h 359.13462 v 88.70192 H 322.43269 V 691.56731 Z M 453.32212,290.24519 592.86538,429.78846 888.17788,131.23077 952,197.21635 592.86538,556.35096 389.5,354.06731 Z M 681.56731,873.29808 V 962 H 140.70192 Q 102.84135,962 77.420673,936.57933 52,911.15865 52,873.29808 V 285.91827 h 88.70192 v 587.37981 z"
     id="path2"
     style="stroke-width:1.08173;fill:#93a1a1;fill-opacity:1" />
</svg>
