<?xml version="1.0" encoding="UTF-8" standalone="no"?>
<svg
   xmlns:dc="http://purl.org/dc/elements/1.1/"
   xmlns:cc="http://creativecommons.org/ns#"
   xmlns:rdf="http://www.w3.org/1999/02/22-rdf-syntax-ns#"
   xmlns:svg="http://www.w3.org/2000/svg"
   xmlns="http://www.w3.org/2000/svg"
   xmlns:sodipodi="http://sodipodi.sourceforge.net/DTD/sodipodi-0.dtd"
   xmlns:inkscape="http://www.inkscape.org/namespaces/inkscape"
   version="1.1"
   viewBox="-10 0 1034 1024"
   id="svg6"
   sodipodi:docname="video_file.svg"
   inkscape:version="1.0.2 (e86c870879, 2021-01-15, custom)">
  <metadata
     id="metadata12">
    <rdf:RDF>
      <cc:Work
         rdf:about="">
        <dc:format>image/svg+xml</dc:format>
        <dc:type
           rdf:resource="http://purl.org/dc/dcmitype/StillImage" />
      </cc:Work>
    </rdf:RDF>
  </metadata>
  <defs
     id="defs10" />
  <sodipodi:namedview
     pagecolor="#ffffff"
     bordercolor="#666666"
     borderopacity="1"
     objecttolerance="10"
     gridtolerance="10"
     guidetolerance="10"
     inkscape:pageopacity="0"
     inkscape:pageshadow="2"
     inkscape:window-width="1920"
     inkscape:window-height="1080"
     id="namedview8"
     showgrid="false"
     inkscape:zoom="0.69824219"
     inkscape:cx="517"
     inkscape:cy="512"
     inkscape:window-x="1920"
     inkscape:window-y="0"
     inkscape:window-maximized="1"
     inkscape:current-layer="svg6" />
  <g
     transform="matrix(1 0 0 -1 0 819)"
     id="g4"
     style="fill:#d499e5;fill-opacity:1">
    <path
       fill="currentColor"
       d="M662.714 757l225 -225v-610.714q0 -64.2861 -64.2852 -64.2861h-642.857q-64.2852 0 -64.2852 64.2861v771.428q0 64.2852 64.2852 64.2852h482.144zM823.429 -78.7139v578.571l-192.856 192.856h-450v-771.428h642.856zM502.45 371.8q26.0996 0 45 -19.3496 q18.8994 -19.3506 18.8994 -45.4502v-192.6q0 -26.1006 -18.8994 -45.4502q-18.9004 -19.3506 -45 -19.3506h-193.5q-26.1006 0 -45 19.3506q-18.9004 19.3496 -18.9004 45.4502v192.6q0 26.0996 18.9004 45.4502q18.8994 19.3496 45 19.3496h193.5zM749.05 370 q9.90039 -4.5 9.90039 -14.4004v-289.8q0 -9.89941 -9.90039 -14.3994q-3.59961 -1.80078 -6.2998 -1.80078q-6.2998 0 -10.7998 4.5l-133.2 134.101v45l133.2 134.1q4.5 4.5 10.7998 4.5q2.7002 0 6.2998 -1.7998z"
       id="path2"
       style="fill:#d499e5;fill-opacity:1" />
  </g>
</svg>
