/* XPM */
static char *XPM_icon[] = {
"16 16 5 1 8 8",
"  c None",
"w c #707880",
"y c #da8548",
"r c #ff6c6b",
"g c #98be65",
"                ",
" gggggggggggggg ",
"                ",
"                ",
"   gggggggggg   ",
"                ",
"                ",
"     gggggg   w ",
"             ww ",
"            w w ",
"      gggg    w ",
"              w ",
"              w ",
"              w ",
"              w ",
"                ",
};
