/* XPM */
static char *XPM_icon[] = {
"1 26 2 1 2 12",
"  c None",
"w c #707880",
" ",
" ",
" ",
" ",
"w",
"w",
"w",
"w",
"w",
"w",
"w",
"w",
"w",
"w",
"w",
"w",
"w",
"w",
"w",
"w",
"w",
"w",
" ",
" ",
" ",
" ",
};
